<?xml version="1.0" encoding="UTF-8"?>
<!DOCTYPE svg PUBLIC "-//W3C//DTD SVG 1.1//EN" "http://www.w3.org/Graphics/SVG/1.1/DTD/svg11.dtd">
<!-- Creator: CorelDRAW 2020 (64-Bit) -->
<svg xmlns="http://www.w3.org/2000/svg" xml:space="preserve" width="90mm" height="36mm" version="1.1" style="shape-rendering:geometricPrecision; text-rendering:geometricPrecision; image-rendering:optimizeQuality; fill-rule:evenodd; clip-rule:evenodd"
viewBox="0 0 9000 3600"
 xmlns:xlink="http://www.w3.org/1999/xlink"
 xmlns:xodm="http://www.corel.com/coreldraw/odm/2003">
 <defs>
  <style type="text/css">
   <![CDATA[
    .fil0 {fill:#E31E24}
    .fil1 {fill:#E31E24;fill-rule:nonzero}
   ]]>
  </style>
 </defs>
 <g id="Layer_x0020_1">
  <metadata id="CorelCorpID_0Corel-Layer"/>
  <g id="_1689300819680">
   <g>
    <path class="fil0" d="M3255.62 1759.18c-58.04,-36.11 -233.73,31.23 -354.98,-14.91 51.63,92.89 119.95,110.34 237.43,67.73 1.57,-0.56 -4.6,-18.67 -3.01,-19.26 2.47,-0.91 13.9,15.06 16.47,14.2 6.55,-2.17 -7.47,-18.04 -0.17,-21.19 2.98,-1.26 27.05,10.51 30.12,9.11 4.5,-2.01 9.1,-4.15 13.77,-6.35 1.02,-1.54 -8.69,-9.19 32.14,-36 3.9,-2.55 5.74,18.01 10.07,15.84 5.95,-2.95 12,-6.02 18.16,-9.17zm-60.48 10.79c-40.18,-18.28 -175.67,20.96 -259.66,-2.4 37.08,57.4 109.03,45.6 259.66,2.4z"/>
    <path class="fil0" d="M5183.24 749.24c179.96,8.8 214.85,209.16 139.94,237.78 -7.42,-15.24 -7.25,-28.73 -5.17,-42.17 3.01,-19.32 -18.29,-30.58 -39.7,-11.11 5.71,-30.3 16.65,-51.98 6.96,-75.87 -7.52,-18.59 -34.4,-37.27 -51.43,-70.51 55.66,53.62 79.34,67.24 63.04,125.27 24.68,-15.16 31.84,9.29 35.72,27.59 30.93,-51.51 -12.07,-156.55 -149.36,-190.98z"/>
    <path class="fil0" d="M5229.87 790.46c-12.35,-5.85 -33.6,10.55 -37.12,19.9 -3.52,9.36 9.7,43.45 -5.6,47.34 -15.32,3.89 -49.89,-1.45 -58.32,8.9 -8.43,10.36 8.25,58.75 8.25,58.75 0,0 -8.41,-41.12 6.57,-54.02 14.99,-12.9 64.25,13.68 65.34,-4.37 -3.53,-15.18 -9.55,-35.29 -4.98,-50.56 3.34,-11.11 14.46,-18.29 25.86,-25.94z"/>
    <path class="fil0" d="M5105.76 882.2c0,0 0.1,18.54 -14,38.42 -22.32,31.49 -80.19,36.54 -111.51,20.63 -54.18,-27.53 -45.75,-48.96 -71.97,-69.68 -13.93,-11 -33,-18.75 -47.81,-23.59 -24.71,-8.07 -23.75,-17.29 -1.69,-36.35 15.69,-13.56 53.25,-30.63 108.12,-3.74 -65.87,-4.15 -102.33,3.43 -109.18,24.89 7.48,-3.4 52.15,3.22 70.12,29.1 31.37,45.24 39.69,64.81 91.67,68.38 53.93,3.72 86.25,-48.06 86.25,-48.06z"/>
    <path class="fil1" d="M4892.53 734.97c-65.18,-30.12 -140.79,-77.49 -152.43,-150.46 -3.83,-23.98 1.44,-14.31 14.2,0.51 18.12,21.06 40.99,36.51 53.59,44.94l-31.8 -35.68c-13.6,-19.4 -25.31,-34.84 -37.27,-65.56 -10.03,-16.58 -12.87,13.63 -12.73,18.51 1.29,46.73 16.95,87.16 44.87,122.17 30.69,38.54 76.23,70.51 133.82,97.12l-12.25 -31.55z"/>
    <path class="fil0" d="M4973.69 694.71c0,0 5.92,-4.62 15.3,-6.58 9.37,-1.97 16.96,8.83 25.08,25.6 8.1,16.76 -13.01,-18.47 -24.39,-19.28 -11.36,-0.8 -15.99,0.26 -15.99,0.26z"/>
    <path class="fil0" d="M5000.47 701.84c0.19,0.74 -2.08,12.03 -12.03,10.6 -6.52,-0.94 -12.05,-10.49 -6.85,-15.26l4.72 -4.31 8.14 0.72c0,0 5.81,7.55 6.02,8.25z"/>
    <path class="fil0" d="M3804.24 749.24c-179.96,8.8 -214.85,209.16 -139.95,237.78 7.44,-15.24 7.26,-28.73 5.18,-42.17 -3.01,-19.32 18.29,-30.58 39.69,-11.11 -5.7,-30.3 -16.65,-51.98 -6.95,-75.87 7.52,-18.59 34.39,-37.27 51.43,-70.51 -55.66,53.62 -79.34,67.24 -63.04,125.27 -24.68,-15.16 -31.84,9.29 -35.73,27.59 -30.92,-51.51 12.08,-156.55 149.37,-190.98z"/>
    <path class="fil0" d="M3757.61 790.46c12.35,-5.85 33.6,10.55 37.12,19.9 3.52,9.36 -9.7,43.45 5.59,47.34 15.33,3.89 49.9,-1.45 58.34,8.9 8.42,10.36 -8.26,58.75 -8.26,58.75 0,0 8.41,-41.12 -6.56,-54.02 -15,-12.9 -64.26,13.68 -65.35,-4.37 3.53,-15.18 9.58,-35.29 4.98,-50.56 -3.34,-11.11 -14.47,-18.29 -25.86,-25.94z"/>
    <path class="fil0" d="M3881.71 882.2c0,0 -0.1,18.54 14.01,38.42 22.32,31.49 80.19,36.54 111.5,20.63 54.19,-27.53 45.73,-48.96 71.98,-69.68 13.93,-11 33,-18.75 47.81,-23.59 24.7,-8.07 23.75,-17.29 1.69,-36.35 -15.69,-13.56 -53.26,-30.63 -108.13,-3.74 65.88,-4.15 102.33,3.43 109.18,24.89 -7.47,-3.4 -52.14,3.22 -70.11,29.1 -31.38,45.24 -39.7,64.81 -91.67,68.38 -53.93,3.72 -86.26,-48.06 -86.26,-48.06z"/>
    <path class="fil1" d="M4094.95 734.97c65.18,-30.12 140.79,-77.49 152.43,-150.46 3.83,-23.98 -1.44,-14.31 -14.2,0.51 -18.12,21.06 -40.99,36.51 -53.6,44.94l31.81 -35.68c13.61,-19.4 25.31,-34.84 37.27,-65.56 10.03,-16.58 12.87,13.63 12.72,18.51 -1.29,46.73 -16.95,87.16 -44.84,122.17 -30.71,38.54 -76.24,70.51 -133.83,97.12l12.24 -31.55z"/>
    <path class="fil0" d="M4013.79 694.71c0,0 -5.93,-4.62 -15.31,-6.58 -9.36,-1.97 -16.94,8.83 -25.07,25.6 -8.1,16.76 13.01,-18.47 24.39,-19.28 11.36,-0.8 15.99,0.26 15.99,0.26z"/>
    <path class="fil0" d="M3987.01 701.84c-0.2,0.74 2.08,12.03 12.03,10.6 6.52,-0.94 12.05,-10.49 6.85,-15.26l-4.72 -4.31 -8.14 0.72c0,0 -5.81,7.55 -6.02,8.25z"/>
    <path class="fil0" d="M4314.42 366.84l6.76 0 62.85 75.5c-35.29,5.28 -62.55,35.44 -62.55,71.55l0 0c0,31.94 21.36,59.24 50.75,68.73 0.46,0.16 6.86,0.3 7.32,0.45l-51.5 60.61 -13.63 0 0 -276.84zm65.49 0l225.79 0 -62.08 74.69 -30.34 0 0 -0.49 -0.99 0 -38.97 0 -0.97 0 0 0.49 -30.35 0 -62.09 -74.69zm284.52 0l6.76 0 0 276.84 -13.63 0 -51.5 -60.61c0.48,-0.15 6.86,-0.29 7.32,-0.45 29.39,-9.49 50.76,-36.79 50.76,-68.73l0 0c0,-36.11 -27.26,-66.27 -62.56,-71.55l62.85 -75.5zm-65.6 276.84l-85.55 0 0 -17.66 0 -17.06 0 -125.98 68.16 0c20.19,0 36.72,12.7 36.72,30.91l0 0c0,18.18 -16.53,33.06 -36.72,33.06l-64.59 0 17.52 20.68 64.46 76.05zm-126.48 0l-85.58 0 64.47 -76.05 17.53 -20.68 -64.59 0c-20.2,0 -36.73,-14.88 -36.73,-33.06l0 0c0,-18.21 16.53,-30.91 36.73,-30.91l68.17 0 0 125.98 0 17.06 0 17.66z"/>
    <path class="fil1" d="M4596.82 286.9c1.77,-26.63 32.5,-71.96 65.98,-75.56 12.88,-10.28 67.69,-0.49 84.28,14.7 27.84,21.51 44.48,73.24 58.72,116.76 15.61,47.75 36.09,105.84 72.51,154.53 41.48,31.95 69.82,-23.29 86.92,47.32 3.85,9.4 1.38,26.59 7.04,29.87 5.66,3.28 19.45,-7.33 34.32,-6 39.19,-12.99 46.65,14.5 53.05,24.81 4.31,6.96 -1.27,20.53 6.37,24.94 16.84,9.7 45.99,6.94 63.12,6.15 16.34,-0.78 55.47,3.03 73.51,36.59 9.62,17.9 11.26,39.43 5.39,57.33 -5.2,15.79 -41.92,42.25 -60.9,47.39 -13.83,5.8 10.24,7.8 16.47,5.47 7.85,-2.93 18.6,-7.94 27.59,-11.87 27.85,-12.13 59.36,3.44 90.54,1.1 85.1,4.32 202.16,11.59 307.78,50.21 104.45,38.2 213.18,108.32 279.75,242.28 8.4,16.89 26.88,61.21 30.39,111.22 -20.48,-33.19 -45.69,-55.6 -77.95,-76.57 31.8,28.19 66.5,82.33 84.31,124.71 14.62,34.68 21.34,91.49 0.63,132.2 -3.15,55.03 19.35,80.17 29.03,134.2 0,0.05 -10.4,23.56 -7.33,55.24 3.71,38.23 25.12,86.83 22.67,100.4 47.84,-69.97 53.26,-69.46 26,-150.1 -3.96,-11.69 -42.86,-51.88 -37.46,-146 1.46,-25.47 2.92,-50.97 3.06,-77.18l0 -0.07 0.01 -6.81 0 -0.07c-0.17,-39.96 -5.17,-73.6 -14.6,-106.23 -9.39,-32.53 -23.03,-63.72 -40.57,-98.98 -71.06,-143.01 -178.27,-218.47 -289.99,-259.31 -110.55,-40.42 -224.45,-46.5 -311.76,-50.97 -35.74,-1.8 -43.86,-46.1 -56.4,-69.4 -28.13,-52.29 -64.8,-66.45 -94.12,-65.09 -23.71,1.11 -45.21,0.9 -58.45,-20.48 -7.79,-14.04 -14.72,-28.02 -39.77,-32.18 -19.66,-3.27 -40.29,9.56 -48.28,-11.69 -5.88,-15.65 -12.76,-34 -37.29,-45.28 -11.51,-5.29 -21.97,-7.85 -31.77,-10.28 -11.91,-2.9 -22.59,-5.52 -29.1,-12.94 -35.92,-40.9 -52.04,-90.16 -66.65,-134.83 -15.92,-48.69 -30.25,-92.42 -66.14,-120.17 -13.27,-10.24 -29.02,-17.21 -45.61,-20.64 -19.17,-3.94 -39.52,-3.1 -58.5,3.01 -19.21,6.18 -37.02,17.67 -50.85,34.95 -10.92,13.65 -19.3,30.91 -23.77,51.93l-2.39 17.55c-1.58,11.42 0.57,13.27 9.51,6.67 15.02,-11.13 25.01,-3.51 37.27,-13.88 11.42,9.25 11.12,32.69 26.88,24.75 5.12,-2.59 -7.54,-10.75 0.14,-25.44 15.19,-29.03 48.84,-24.86 56.28,-3.03 11.42,33.53 14.95,111.49 23.95,166.36 5.51,33.47 10.46,63.78 15.75,83.97l0 0.07 0.03 0.1c21.39,81.45 80.38,93.13 123.99,132.53 24.77,22.35 14.31,51.32 20.12,79.23 4.42,21.36 38.3,53.56 90.55,59.4 3.97,-1.55 -42.67,-26.74 -60.48,-47.74 -13,-15.3 -14.77,-34.51 -14.48,-40.98l0 -0.07c1.13,-23.82 -1.2,-39.32 -22.13,-58.23 -28.83,-26.02 -87.55,-59.15 -105.79,-89.01 -38.91,-63.63 -33.83,-160.13 -46.9,-232.73 -7.26,-40.34 -17.23,-71.83 -36.66,-80.3 -42.59,-18.58 -71.39,33.95 -97.82,22.17z"/>
    <path class="fil1" d="M5906.37 1341.2c-18.77,42.73 -33.26,118.38 -24.31,153.22 8.8,34.25 22.24,66.39 36.96,101.24l-0.01 0.01 0.06 0.15 0.07 0.07c6.55,15.61 9,33.28 9.59,50.49 0.23,6.75 1.69,16.86 -16.55,19.38 -0.13,3.95 16.85,8.36 17.63,12.22 2.76,13.78 10.06,26.81 13.06,38.26l1.97 7.38c5.48,19.87 -16.15,20.68 -21.41,20.5l-79.24 -6.57c-1.47,5.87 -43.32,12.27 -35.31,-16.13 3.5,-12.42 16.34,-26.91 34.58,-19.96 2.06,-9.51 -46.04,-16.85 -46.85,30.89 -0.15,8.99 -28.1,7.95 -28.09,-1.47 5.16,-34.37 14.49,-43.49 34.8,-35.14 1.63,-2.98 -7.34,-11.83 -6.14,-14.66 2.39,-5.65 14.78,-5.85 16.38,-12.25 -36.48,-31.64 8.8,-36.9 4.75,-46.84 -20.35,-49.67 -38.1,-81.76 -72.19,-115.44 -15.69,-15.45 -35.41,-33.75 -48.05,-54.97 -9.28,-15.57 -16.24,-35.22 -22.75,-78.21 -15.93,-49.52 -62.17,-196.86 -115.64,-213.99 6.49,7.58 14.62,20.51 22.79,35.7 3.91,7.26 7.83,15.07 11.59,23.06 16.25,34.58 29.29,72.64 24.71,86.56 -3.39,10.38 -9.18,24.94 -7.83,34.62 0.5,3.74 -8.5,15.63 -5.37,13.23 22.84,-17.48 48.84,15.27 48.58,33.03 5.11,75.49 10.78,55.17 83.39,131.84 16.03,16.92 23.71,36.46 34.41,55.25 10.98,19.23 14.65,47.41 11.57,72.85 -0.65,5.4 -1.6,10.57 -2.81,15.38 -1.18,4.7 -2.65,9.19 -4.4,13.34 -0.96,2.27 -1.91,4.25 -2.8,5.89l-2.95 5.43 -0.03 -0.02c-8.89,16.27 -15.29,28.02 -15.7,39.16 -0.78,21.27 12.34,30.38 50.02,31.72l121.94 4.37c30.77,1.09 40.65,-5.17 41.37,-24.76 0.25,-6.63 -1.53,-13.07 -3.92,-21.69 -1.1,-4.03 -1.54,-5.42 -1.95,-7.01 -2.66,-10.09 -10.73,-24.52 -10.26,-40.18 1.35,-43.76 -10.78,-79.82 -24.93,-116.05 -20.66,-52.95 -41.36,-98.23 -20.73,-209.9z"/>
    <path class="fil1" d="M5567.61 1427.3c-13.41,46 -36.06,110.92 -18.44,144.66 9.48,19.21 26.08,25.38 19.11,47.9l-0.03 -0.02c-7.05,14.56 -51.3,75.55 -31.91,87.64l-0.01 0.03c2.99,1.86 6.37,2.84 10.17,2.91 59.53,1.1 255.44,44.25 159.16,-73.16 -25.22,-40.34 13.24,-81.69 39.51,-110.13l-18.79 -20.34c-23.78,34.22 -61.22,84.72 -41.53,128.15 1.65,3.66 -12.42,4.65 -9.96,8.61 1.1,1.71 18.29,6.39 19.34,8.32 35.93,65.8 -58.13,45.32 -96.21,45.11 13.2,-12.48 11.89,-24.95 -0.16,-37.43 6.34,30.5 -23.97,42.7 -53.03,38.44 -11.16,-26.97 45.71,-46.16 54.12,-64.07 0,-0.01 -3.97,-29.23 -1.42,-29.98 50.36,-14.76 -4.36,-12.84 -11.37,-15.84 -56.31,-23.97 -4.95,-134.03 16.06,-166.28l-3.24 -2.07c-9.91,3.29 -20.72,8.8 -31.37,7.55z"/>
    <path class="fil1" d="M5658.87 1406.47c-50.31,11.51 -123.56,25.63 -183.55,1.02 -60.59,-24.86 -90.65,-45.75 -169.5,-102.21 -1.89,-1.35 -23.59,-21.66 -25.54,-23.07l-11.04 21.6c89.01,62.23 133.54,87.79 198.22,114.32 66.7,27.37 143.94,22.66 201.66,9.47l-10.25 -21.13z"/>
    <path class="fil0" d="M5620.62 1269.49c-14.35,146.16 -164,93.1 -275.34,38.92 61.03,53.78 234.92,113.07 294.69,10.91 0,0 -20.63,-51.08 -19.35,-49.83z"/>
    <path class="fil1" d="M5694.08 895.63c-89.85,-45.45 -176.69,-74.27 -276.96,-111.74 79.04,11.6 199.01,49.69 289.51,106.18 63.95,39.94 131.24,113.86 157.29,184.72 -43.41,-42.42 -77.12,-132.24 -169.84,-179.16z"/>
    <path class="fil1" d="M5095.8 980.08c-0.23,11.33 -29.22,114.47 -29.23,125.61 -0.23,107.91 9.03,207.96 37.43,309.32 2.59,9.34 12.59,45.15 19.25,79.96 9.42,49.19 9.93,87.09 -0.14,110.27 -24.43,19.12 -39.62,32.99 -41.51,49.73 -1.98,17.62 -3.79,25.92 5.47,30.41l1.16 -2.02 183.42 0c-1.53,3.51 -3.11,7 -4.69,10.47 12.24,-0.88 20.6,-3.35 22.19,-9.04 0.05,-0.15 6.78,-26.97 -8.33,-52.47 -13.72,-41.85 -14.9,-94.01 -8.95,-154.44 4.61,-47 5.3,-108.07 -1.97,-145.67 12.94,-8.41 31.46,-54.52 12.32,-140.02 -9.17,-40.93 0.3,-81.49 -1.47,-97.26 -13.19,30.88 -18.07,86.25 -10.77,136.56 3.82,26.2 3.99,44.14 -6.87,70.18 -20.57,30.05 -53.65,8.18 -50.78,-43.03 -18.86,71.16 28.59,77.03 43.09,78.32 7.21,37.24 2.53,152.95 -3.67,201.35 -1.1,13.1 -3.19,24.83 -4.17,36.51 -1.61,19.38 -20.66,26.41 -20.45,29.36 0.36,5.28 20.9,3.14 22.31,8.82 9.11,8.87 11.25,18.47 16.78,29.22 8.27,13.96 1.75,27.6 -4.09,33.63 -9.92,10.24 -71.72,4.26 -85.85,1.99 -58.38,-1.33 -37.04,-42.7 -19.69,-56.06 -14.21,3.82 -48.82,26.54 -26.14,52.71 -26.42,6.57 -33.36,2.02 -36.72,-6.93 9.36,-50.04 40.12,-36.01 48.44,-46.44 5.31,-6.67 7.67,-21.14 7.85,-40 0.17,-19.99 17.63,-23.72 12.65,-25.89 -13.93,-6.1 -14.93,-16.91 -15.52,-22.32 -3.21,-29.18 -8.85,-61.26 -15.32,-89.69 -2.92,-12.85 -5.99,-25.01 -8.98,-35.79 -3.09,-11.03 -6.13,-20.57 -8.93,-27.97l-0.07 -0.21 -0.04 -0.05c-17.8,-47.38 -30.44,-207.97 -23.93,-273.69l5.92 -125.43zm18.01 399.12l0 0 0 0z"/>
    <path class="fil1" d="M5028.14 993.46c-55.5,80.78 -107.83,172.38 -176.9,238.16 -34.19,32.58 -85.85,80.61 -92.79,111.38l-0.02 0.13 -0.07 0.07c-3.29,14.77 -2.81,36.8 -2.3,59.17 0.58,26.46 1.2,51.98 -0.44,59.96l-3.35 0.3 -0.06 0.13c-2.44,3.33 -4.54,6.8 -6.39,10.31 -1.8,3.44 -3.35,6.92 -4.65,10.33 -21.08,55.01 15.75,48.14 48.4,49.74 18.34,0.91 40.95,2.31 59.13,2.31 35.89,0 66.26,1.92 68.69,-12.48l0.01 -0.16 1.58 -3.85c5.89,-28.96 -11.66,-41.99 -21.26,-57.74 -3.84,-18 2.25,-51.64 8.78,-59.07l0.05 -0.07 0.05 -0.02 -0.01 0c0.99,-1.13 -0.22,-7.61 2.38,-10.06 26.39,-24.92 59.03,-56.38 87.9,-80.49 13.08,-10.88 33.39,-27.68 45.57,-30.02 12.02,-2.32 25.5,-3.48 42.28,3l10.76 -11.87c-23.05,-8.9 -42.54,-11.31 -61.08,-7.74 -18.42,3.55 -34.94,12.83 -52.36,27.37 -24.8,20.69 -50.42,53.1 -72.08,72.44 -4.05,3.61 -16.38,10.09 -19.76,13.31 -3.31,3.09 -7.48,0.37 -9.25,2.37l-0.06 0.06 -0.03 0.05 0 0c-7.18,8.26 4.12,28.75 2.76,45.62 -1.61,20.05 3.11,20.71 -9.06,44.25 15.81,7.68 31.27,15.98 26.74,38.25 -5.73,28.35 -76.01,14.19 -92.3,14.19 -24.77,9.18 -4.05,-17.93 -16.28,-25.91 -8.08,34.77 -29.29,18.94 -35.69,18.44 -22.12,-10.88 -1.35,-44.03 32,-49.22 -21.05,-17.46 -12.19,-33.58 0.8,-39.89 -20.91,-3.16 -20.9,-72.41 -1.62,-96.66 33.83,-42.56 50.37,-62.92 79.75,-90.9 9.7,-9.23 38.72,-47.94 50.12,-50.32 19.04,-3.96 20.28,36.86 24.83,13.05 3.69,-19.26 -4.71,-29.98 2.58,-48.97 18.63,-48.51 60.94,-103.41 86.27,-140.46l-3.62 -18.49z"/>
    <path class="fil0" d="M4969.61 936.35c0,0 51.25,19.02 56.66,63.24 5.42,44.23 50.55,117.81 50.55,117.81 13.8,-59.89 -39.54,-78.93 -36.55,-119.32 1.39,-18.91 -12.82,-40.73 -22.56,-49.58l-48.1 -12.15z"/>
    <path class="fil0" d="M5090.45 840.43c4.65,28.56 26.7,57.52 16.98,83.8 -26.54,71.6 -5.34,81.8 -11.33,121.62 -8.23,54.76 -9.95,79.7 36.75,43.2 25.27,-19.76 35.19,-57.21 94.67,-66.58 112.33,-17.68 121.11,-62.27 120.84,-62.51l-19.72 -16.82c-0.24,9.71 -4.86,-6.18 -7.49,0.88 -9.97,26.65 -34.7,36.81 -56.34,48.04 -48.82,25.39 -90.12,26.03 -150.53,85.6 -8.98,-36.19 -4.69,-78.43 6.57,-137.38 6.54,-34.39 -17.62,-58.75 -30.4,-99.85z"/>
    <path class="fil0" d="M5017.42 1587.13c-168.62,-129.38 -340.38,-60 -472.32,101.71 -5.35,6.57 -2.44,10.83 -7.71,17.72 136.56,-160.54 321.63,-247.22 481.33,-101.57 45.05,41.06 80.58,30.92 121.16,43.38 -57.24,-44.91 -80.92,-29.39 -122.46,-61.24z"/>
    <path class="fil0" d="M5141.07 1633.36c-39.39,-12.86 -71.49,59.88 -126.32,21.02 14.42,34.65 13.39,60.22 -0.03,92.91 -0.57,1.36 -19.22,-141.25 -140.85,-174.21 -122.23,-33.11 -234.98,26.98 -329.86,139.33 -4.6,5.45 -2.09,8.77 -6.62,14.49 100.94,-114.82 219.92,-176.67 345.97,-128.26 82.66,31.74 110.37,99.91 123.56,175.82 3.36,19.35 43.62,-44.48 23.1,-98.37 70.54,13.75 104.78,-40.66 111.05,-42.73z"/>
    <path class="fil0" d="M4545.94 1749.13c38.42,-51.5 127.95,-117.67 196.65,-130.02 59.88,-10.77 113.97,14.67 121.25,90.77 20.09,-10.93 30.91,6.39 52.85,-16.4 4.3,18.86 14.48,31.5 27.99,46.04 1.88,1.59 3.86,3.32 5.95,5.19l19.29 18.59c20.07,-34.92 21.79,-72.36 -17.97,-121.8 21.19,42.41 27.36,75.85 11.14,88.44 -20.12,-4.25 -34.34,-27.93 -44.53,-56.51 -12.68,21.87 -29.99,13.67 -46.38,20.05 -11.31,-74.1 -70.61,-95.33 -130.75,-84.48 -64.49,11.64 -167.99,80.96 -193.64,134.65 0,0 0.93,6.38 -1.85,5.48z"/>
    <path class="fil1" d="M4579.77 1747.69c1.54,0.89 72.7,-22.7 130.97,-22.78 45.14,-0.06 41.3,37.49 89.23,47.12 15.39,3.1 35.05,4.02 49.42,-3.11 23.19,-11.48 28.56,-38.04 -0.67,-47.66 -19.61,-6.45 -32.62,6.82 -32.95,27.53 -19.2,-2.52 -15.48,-53.21 32.52,-44.98 25.96,7.1 34.34,30.07 27.96,49.75 -11.21,10.48 -22.84,20.53 -34.88,30.09 -13.09,2.75 -28.36,1.5 -41.05,-1.12 -42.98,-8.86 -45.37,-39.75 -90.11,-43.23 -39.93,-3.1 -85.46,5.89 -110.28,11.75 -8.61,2.02 9.34,9.21 -10.02,-0.52l-10.14 -2.84z"/>
    <path class="fil0" d="M4566.24 1738.63c42.57,-33.58 88.65,-66.55 148.05,-68.05 29.5,-0.75 72.27,2.92 90.36,55.27 1.87,5.42 4.91,12.48 9.52,19.24 3.52,5.12 9.2,9.32 12.96,8.23 -16.15,8.68 -21.95,-2 -25.58,-11.01 -18.87,-46.52 -44.13,-61.71 -87.86,-61.14 -59.05,0.73 -106.96,30.63 -146.83,67.03l-0.62 -9.57z"/>
    <path class="fil0" d="M4745.83 1746.45c21.7,22.09 21.86,51.86 11.2,68.35 -18.6,28.69 -66.84,26.52 -68.55,-6.44 -4.84,-28.51 40.8,-45.34 46.59,-8.86 2.92,-16.4 -7.99,-29.39 -22.08,-32.46 -32.44,-7.05 -50.7,24.55 -39.2,52.07 15.68,37.53 63.66,34.38 84.01,15.42 22.66,-21.08 24.88,-60.6 -11.97,-88.08z"/>
    <path class="fil0" d="M4540.1 1807.61c-4.62,0.9 -9.8,-3.6 -9.97,-5.42 -4.78,-48.41 19.81,-174.14 67.24,-194.58 -25.65,-16.63 -40.84,-3.4 -54.74,12.43 -16.78,19.13 -25.71,97.56 -29.05,100.18 0,-5.67 12.87,-67.76 9.05,-112.96 -1.54,-18.15 -14.69,-38.96 -28.88,-49.92l0 -10.87c25.22,15.78 40.62,33.8 40.62,59.59 24.92,-17.12 44.06,-25.42 83.65,-2.87 -50.06,27.26 -94.23,156.41 -77.92,204.42z"/>
    <path class="fil0" d="M5815.87 1942.24c-211.35,140.85 -426.62,65.31 -591.99,-110.75 -6.73,-7.15 -3.07,-11.79 -9.66,-19.3 171.16,174.81 400.36,266.43 600.52,107.88 56.45,-44.72 97.5,-22.11 131.07,13.4 -53.73,-15.82 -77.89,-25.92 -129.94,8.77z"/>
    <path class="fil0" d="M5943.83 1932.43c-11.3,-45.77 -26.56,-94.18 -112.58,-67.62 18.05,-34.61 15.26,-37.85 21.65,-74.74 0.12,-0.8 -24.09,34.42 -73.24,75.84 -35.89,30.23 -84.61,66.63 -148.87,80.6 -128.96,28.02 -271.82,-21.48 -387.34,-121.26 -10.97,-9.47 -21.37,-19.2 -31.55,-29.05 1,-1.59 2.03,-3.19 3.04,-4.8 10.67,10.21 21.66,20.27 33.54,29.89 119.21,96.79 257.99,150.53 401.96,106.43 43.68,-13.38 84.93,-41.9 117.31,-72.73 44.38,-42.25 76.32,-86.91 113.23,-85.33 -16.96,40.17 -7.88,42.59 -22.84,74.48 88.43,-13.76 94.45,64.4 85.69,88.29z"/>
    <path class="fil0" d="M5843.12 1791.98c-9.53,-14.79 -40.58,13.06 -57.12,18.62 16.59,-34.63 -10.06,-42.35 -31.09,-47.25 -1.8,-0.41 -18.42,99.63 -158.45,132.71 -121.52,28.72 -256.49,-28.93 -364.04,-134.15 0.95,-1.68 1.88,-3.39 2.83,-5.09 111.87,102.56 243.88,163.25 380.16,117.83 95.21,-31.72 124,-95.13 136.75,-131.86 19.45,1.9 57.34,21.56 43.6,53.47 31.36,-26.39 66.52,-28.25 77.48,-24.41l-30.12 20.13z"/>
    <path class="fil0" d="M5252.91 1723.86c39.54,17.93 100.21,30.28 143.07,22.48 56.87,-10.36 93.44,-52.52 82.84,-94.94 14.71,0.18 52.47,6.69 47.02,58.12 -3.18,-20.6 -15.75,-45.03 -34.73,-44.68 9.84,36.98 -30.22,79.03 -98.18,90.1 -42.68,6.95 -101.37,-4.17 -140.82,-24.26 -1,-0.42 -1.7,-0.87 -2.19,-1.35 0.93,-1.83 1.88,-3.66 2.81,-5.52 0.06,0.01 0.13,0.03 0.18,0.05z"/>
    <path class="fil0" d="M5282.84 1800.21c20.66,12.59 51.7,30.09 76.14,38.32 61.58,20.68 142.2,6.23 175.04,0.06 13.07,-2.45 29.62,10.57 35.72,22.71 12.69,-2.34 32.71,-37.26 -1.01,-69.82 -10.17,2.67 -14.92,2.83 -15.63,4.71 7.29,2.71 13.16,5.07 17.97,10.29 11.41,12.37 10.92,29.32 -2.46,33.06 -21.9,-24.84 -50.17,-13.33 -77.93,-5.55 -36.04,10.13 -88.91,11.02 -130.92,-1.16 -26.15,-7.58 -54.13,-24.98 -77.67,-36.93 -4.22,2.69 -0.63,3.46 0.75,4.31z"/>
    <path class="fil0" d="M5568.04 1793.98c32.09,-7.86 42.28,-48.75 59.74,-59.18 -39.83,-38.53 -121.93,52.1 -198.78,55.18 -54.6,2.2 -120.43,-12.98 -184.99,-49.23 -1.24,2.33 -2.49,4.65 -3.74,6.96 104.34,61.01 229.75,69.97 327.21,4.72 11.82,-7.91 23.74,-14.72 37.04,-13.76 -20.41,22.13 -14.39,34.23 -52.83,57.15l16.35 -1.84z"/>
    <path class="fil0" d="M5495.22 1736.8c22.04,-15.37 27.38,-23.77 77.05,1.31l14.17 -9.52c-46.57,-22.9 -61.02,-26.9 -91.22,8.21z"/>
    <path class="fil0" d="M5731.7 1757.64c58.7,-36.53 236.45,31.59 359.11,-15.09 -52.23,93.97 -121.35,111.63 -240.2,68.52 -1.58,-0.56 4.66,-18.89 3.05,-19.48 -2.5,-0.92 -14.06,15.24 -16.66,14.37 -6.63,-2.2 7.56,-18.26 0.17,-21.44 -3.01,-1.28 -27.36,10.63 -30.48,9.22 -4.54,-2.04 -9.2,-4.2 -13.93,-6.43 -1.03,-1.55 8.8,-9.29 -32.51,-36.42 -3.94,-2.58 -5.8,18.22 -10.18,16.02 -6.02,-2.98 -12.15,-6.08 -18.37,-9.27zm61.17 10.92c40.66,-18.5 177.72,21.2 262.69,-2.44 -37.51,58.08 -110.29,46.14 -262.69,2.44z"/>
    <path class="fil0" d="M5520.22 1699.14c42.47,-31.3 171.06,27.07 259.81,-12.91 -39.18,98.21 -100.65,86.78 -259.81,12.91zm42.74 9.8c29.42,-15.84 130.09,17.72 191.58,-2.52 -27.14,49.74 -81.31,39.94 -191.58,2.52z"/>
    <path class="fil0" d="M5176.61 1847.79c-6.36,122.72 -32.25,207.62 -114.53,332.96 -14.04,21.39 -11.85,33.6 -15.29,69.78 -39.98,3.14 -82.5,-15.19 -77.56,-55.55 -27.03,13.73 -65.31,36.25 -96.87,16.65 1.51,-40.14 23.27,-64.01 52.24,-88.73 -8.47,-1.63 -15.41,-11.18 -22.28,-30.8 11.79,-3.41 40.55,-6.22 69.45,-19.48 43.53,-19.97 93.03,-56.85 117.49,-124.28 3.86,-3.81 7.7,-7.66 11.51,-11.55 -5.87,72.8 -70.08,128.62 -119.09,150.19 -26.04,11.48 -56.97,10.7 -63.82,13.81 5.27,13.06 16.19,17.49 28.82,17.05 -27.08,25.15 -54.56,48.8 -54.93,85.26 33.11,6.49 68.66,-14.77 99.97,-41.73 -29.35,68.08 15.27,70.35 39.63,77.2 -0.66,-25.96 6.24,-56.3 17.46,-72.71 79.9,-116.99 107.92,-207.62 114.71,-300.8 4.46,-5.69 8.79,-11.46 13.09,-17.27z"/>
    <path class="fil0" d="M4960.8 2153.93c86.5,-45.33 160.25,-117.69 179.65,-260.61 -5.11,6.01 -10.29,11.97 -15.59,17.84 -9.09,119.69 -84.34,186.69 -164.06,242.77z"/>
    <path class="fil0" d="M5282.5 1955.3c-5.65,28.25 8.16,52.07 23.75,59.98 27.13,13.79 61.66,-11.58 47.49,-38.69 -9.78,-25.11 -51.3,-16.2 -38.49,15.75 -9.82,-11.66 -7.88,-27.36 1.07,-36.7 20.61,-21.51 48.87,-5.24 53.27,22.33 6.03,37.6 -30.79,58.57 -54.67,53.42 -26.57,-5.72 -46.72,-36.14 -32.42,-76.09z"/>
    <path class="fil0" d="M5208.34 1801.78c19.93,21.08 52,60.07 68.84,107.5 7.44,20.94 8.81,43.61 7.35,67.58 -1.61,26.33 -7.52,49.29 -12.5,74.78 -3.53,18 -3.39,38.01 15.61,48.21 -21.26,-3.87 -25.83,-17.75 -26.11,-32.19 -0.49,-26.58 3.2,-54.18 4.44,-80.77 1.09,-24.07 1.3,-46.84 -2.21,-63.85 -11.06,-53.55 -31.71,-85.7 -57.14,-118.54 0.58,-0.91 1.16,-1.82 1.72,-2.72z"/>
    <path class="fil0" d="M5186.63 1833.95c7.27,13.61 14.89,31.46 16.43,48.72 2.16,24.4 -9.64,76.32 -22.76,95.14 -5.52,7.93 -0.72,-14.44 -0.83,-15.28 1.28,-3.8 2.45,-7.53 3.56,-11.21 14.04,-47.03 13.63,-84.75 2.15,-115.34l1.45 -2.03z"/>
    <path class="fil0" d="M5161.68 1978.87c16.11,13.19 26.28,18.84 42.97,15.18 -10.78,5.17 -21.85,15.4 -27,37.88 10.38,2.44 38.26,13.16 50.41,2.84 -1.66,22.68 6.64,46.49 19.54,61.63 12.89,15.13 29.41,24.08 42.19,21.94 -1.91,-0.83 -2.93,-8.02 -5.11,-8.17 -25.54,-1.86 -33.31,-12.35 -39.3,-32.38 -5.58,-18.62 -0.86,-46.44 6.21,-79.47 -21.03,31.56 -42.67,28.03 -55.06,21.24 7.26,-24.57 19.78,-22.56 31.66,-48.29 -16.44,2.04 -32.3,19.17 -49.32,6.09 5.91,-10.41 12.98,-33.04 8.81,-43.46 -8.67,29.82 -17.92,39.97 -26,44.97z"/>
    <path class="fil0" d="M5216.8 1865.79c12.94,29.42 24.81,71.88 9.91,108.09 -3.26,7.93 -18.48,26.36 -18.61,25.51 1.28,-3.78 3.76,-19.16 6.31,-22.85 16.93,-24.61 13.25,-74.39 0.04,-111.57l2.35 0.82z"/>
    <path class="fil0" d="M5272.15 1877.21c19.49,17.54 47.3,40.43 48.5,72.04 0.28,6.93 -9.45,30.17 -9.82,29.57 -0.34,-3.23 -3.69,-15.39 -3.06,-18.96 4.21,-23.72 -15.32,-59.31 -37.63,-82.47l2.01 -0.18z"/>
    <path class="fil0" d="M5242.96 2043.24c-41.83,-42.35 -73.84,41.81 -123.78,20.63 32.02,74.32 96.68,39.29 123.78,-20.63zm-16.27 6.11c-19.13,-14.5 -63.9,37.41 -93.58,26.15 42.63,35.97 80.8,4.07 93.58,-26.15z"/>
    <path class="fil0" d="M5284.07 1671.92c-1.16,3.43 36.06,1.15 32.57,35.46 -3.5,34.29 24.42,44.57 24.42,44.57l-54.66 -12.57 -34.92 -13.13c4.67,-9.21 9.16,-18.54 13.48,-27.96 9.77,-14.04 19.71,-28.13 19.11,-26.37z"/>
    <path class="fil0" d="M4532.64 1770.85c0.86,0.89 3.03,7.19 3.68,5.84 27.91,-58.62 83.14,-17.3 63.82,18.52 -10.47,19.44 -42.98,19.26 -45.67,-1.49 -3.13,-18.46 25.9,-26.88 29.66,-3.26 1.89,-10.62 -5.18,-19.03 -14.3,-21.02 -21.03,-4.56 -32.85,15.92 -25.41,33.76 10.15,24.3 45.97,24 59.5,8.31 27.44,-31.75 8.29,-71.11 -31.61,-72.59 -33.11,-1.25 -37.7,33.39 -39.67,31.93z"/>
    <path class="fil0" d="M4630.45 1859.69c-14.38,-6.71 -28.03,6.69 -8.31,10.53 31.2,6.07 52.51,-24.89 38.19,-48.63 -9.65,-16 -37.96,-17.55 -42.94,5.02 -3.15,18.47 28.2,23.73 31.97,0.1 1.89,10.62 -4.27,20.39 -18.43,22.83 -21.23,3.62 -34.69,-16.83 -27.25,-34.65 10.15,-24.31 45.99,-24 59.5,-8.33 27.41,31.74 9.87,73.03 -32.89,72.21 -67,-1.33 -16.22,-45.21 0.16,-19.08z"/>
    <path class="fil0" d="M4492.82 1800.68c64.29,0 116.45,33.68 116.45,75.2 0,2.9 -0.26,5.74 -0.74,8.53 -5.01,1.07 -10.05,2.05 -15.11,2.99 0.51,-2.49 0.77,-5.02 0.77,-7.58 0,-35.08 -48.44,-68.31 -100.83,-68.31 -52.39,0 -101.4,32.7 -101.4,67.78 0,2.79 0.32,5.55 0.9,8.26 -5.27,-0.96 -10.53,-2 -15.75,-3.11 -0.5,-2.8 -0.76,-5.66 -0.76,-8.56 0,-41.52 52.16,-75.2 116.47,-75.2z"/>
    <path class="fil1" d="M4390.66 286.9c-1.8,-26.63 -32.5,-71.96 -65.98,-75.56 -12.88,-10.28 -67.7,-0.49 -84.28,14.7 -27.84,21.51 -44.48,73.24 -58.72,116.76 -15.61,47.75 -36.1,105.84 -72.51,154.53 -41.48,31.95 -69.82,-23.29 -86.92,47.32 -3.86,9.4 -1.4,26.59 -7.04,29.87 -5.66,3.28 -19.45,-7.33 -34.33,-6 -39.18,-12.99 -46.65,14.5 -53.04,24.81 -4.31,6.96 1.27,20.53 -6.37,24.94 -16.84,9.7 -45.99,6.94 -63.12,6.15 -16.34,-0.78 -55.47,3.03 -73.51,36.59 -9.62,17.9 -11.26,39.43 -5.38,57.33 5.18,15.79 41.89,42.25 60.89,47.39 13.84,5.8 -10.24,7.8 -16.47,5.47 -7.86,-2.93 -18.6,-7.94 -27.59,-11.87 -27.85,-12.13 -59.36,3.44 -90.54,1.1 -85.1,4.32 -202.16,11.59 -307.78,50.21 -104.46,38.2 -213.18,108.32 -279.75,242.28 -8.4,16.89 -26.89,61.21 -30.4,111.22 20.49,-33.19 45.7,-55.6 77.96,-76.57 -31.81,28.19 -66.5,82.33 -84.32,124.71 -14.61,34.68 -21.34,91.49 -0.62,132.2 3.14,55.03 -19.36,80.17 -29.03,134.2 0,0.05 10.4,23.56 7.33,55.24 -3.71,38.23 -25.12,86.83 -22.67,100.4 -47.85,-69.97 -53.27,-69.46 -26,-150.1 3.96,-11.69 42.85,-51.88 37.46,-146 -1.46,-25.47 -2.92,-50.97 -3.07,-77.18l0 -0.07 0 -6.81 0 -0.07c0.16,-39.96 5.17,-73.6 14.6,-106.23 9.39,-32.53 23.03,-63.72 40.55,-98.98 71.08,-143.01 178.29,-218.47 290.01,-259.31 110.55,-40.42 224.44,-46.5 311.76,-50.97 35.74,-1.8 43.85,-46.1 56.39,-69.4 28.12,-52.29 64.81,-66.45 94.13,-65.09 23.71,1.11 45.21,0.9 58.45,-20.48 7.79,-14.04 14.72,-28.02 39.77,-32.18 19.65,-3.27 40.29,9.56 48.27,-11.69 5.88,-15.65 12.77,-34 37.29,-45.28 11.52,-5.29 21.98,-7.85 31.78,-10.28 11.91,-2.9 22.59,-5.52 29.1,-12.94 35.92,-40.9 52.04,-90.16 66.65,-134.83 15.92,-48.69 30.22,-92.42 66.14,-120.17 13.27,-10.24 29.02,-17.21 45.6,-20.64 19.18,-3.94 39.53,-3.1 58.52,3.01 19.2,6.18 37.01,17.67 50.83,34.95 10.93,13.65 19.31,30.91 23.78,51.93l2.39 17.55c1.58,11.42 -0.57,13.27 -9.51,6.67 -15.02,-11.13 -25.03,-3.51 -37.27,-13.88 -11.43,9.25 -11.12,32.69 -26.87,24.75 -5.12,-2.59 7.52,-10.75 -0.15,-25.44 -15.19,-29.03 -48.84,-24.86 -56.28,-3.03 -11.42,33.53 -14.96,111.49 -23.96,166.36 -5.5,33.47 -10.46,63.78 -15.74,83.97l0 0.07 -0.03 0.1c-21.39,81.45 -80.38,93.13 -124,132.53 -24.76,22.35 -14.3,51.32 -20.11,79.23 -4.42,21.36 -38.33,53.56 -90.55,59.4 -3.97,-1.55 42.67,-26.74 60.48,-47.74 13.01,-15.3 14.77,-34.51 14.47,-40.98l0 -0.07c-1.12,-23.82 1.2,-39.32 22.14,-58.23 28.83,-26.02 87.54,-59.15 105.79,-89.01 38.91,-63.63 33.83,-160.13 46.9,-232.73 7.26,-40.34 17.23,-71.83 36.66,-80.3 42.59,-18.58 71.38,33.95 97.82,22.17z"/>
    <path class="fil1" d="M3081.11 1341.2c18.77,42.73 33.25,118.38 24.31,153.22 -8.81,34.25 -22.26,66.39 -36.96,101.24l0.02 0.01 -0.07 0.15 -0.07 0.07c-6.56,15.61 -9.02,33.28 -9.59,50.49 -0.24,6.75 -1.69,16.86 16.55,19.38 0.13,3.95 -16.85,8.36 -17.63,12.22 -2.78,13.78 -10.06,26.81 -13.06,38.26l-1.97 7.38c-5.5,19.87 16.14,20.68 21.4,20.5l79.24 -6.57c1.47,5.87 43.32,12.27 35.31,-16.13 -3.51,-12.42 -16.33,-26.91 -34.57,-19.96 -2.06,-9.51 46.03,-16.85 46.85,30.89 0.15,8.99 28.1,7.95 28.09,-1.47 -5.16,-34.37 -14.49,-43.49 -34.81,-35.14 -1.62,-2.98 7.35,-11.83 6.15,-14.66 -2.38,-5.65 -14.78,-5.85 -16.38,-12.25 36.48,-31.64 -8.8,-36.9 -4.75,-46.84 20.34,-49.67 38.09,-81.76 72.18,-115.44 15.68,-15.45 35.4,-33.75 48.06,-54.97 9.27,-15.57 16.23,-35.22 22.75,-78.21 15.93,-49.52 62.17,-196.86 115.64,-213.99 -6.49,7.58 -14.62,20.51 -22.79,35.7 -3.91,7.26 -7.84,15.07 -11.59,23.06 -16.24,34.58 -29.29,72.64 -24.71,86.56 3.39,10.38 9.18,24.94 7.83,34.62 -0.5,3.74 8.49,15.63 5.38,13.23 -22.85,-17.48 -48.85,15.27 -48.59,33.03 -5.11,75.49 -10.79,55.17 -83.41,131.84 -16.01,16.92 -23.69,36.46 -34.39,55.25 -10.98,19.23 -14.63,47.41 -11.57,72.85 0.65,5.4 1.6,10.57 2.8,15.38 1.19,4.7 2.66,9.19 4.41,13.34 0.96,2.27 1.91,4.25 2.78,5.89l2.97 5.43 0.01 -0.02c8.9,16.27 15.3,28.02 15.71,39.16 0.79,21.27 -12.34,30.38 -50.01,31.72l-121.94 4.37c-30.77,1.09 -40.66,-5.17 -41.38,-24.76 -0.24,-6.63 1.54,-13.07 3.93,-21.69 1.11,-4.03 1.54,-5.42 1.95,-7.01 2.66,-10.09 10.73,-24.52 10.26,-40.18 -1.35,-43.76 10.78,-79.82 24.93,-116.05 20.66,-52.95 41.36,-98.23 20.73,-209.9z"/>
    <path class="fil1" d="M3419.87 1427.3c19.18,45.68 44.31,110.47 18.44,144.66 -9.48,19.21 -26.08,25.38 -19.12,47.9l0.02 -0.02c7.07,14.56 51.33,75.55 31.93,87.64l0.01 0.03c-2.99,1.86 -6.37,2.84 -10.2,2.91 -59.5,1.1 -255.41,44.25 -159.14,-73.16 25.21,-40.34 -13.23,-81.69 -39.51,-110.13l18.8 -20.34c23.78,34.22 61.21,84.72 41.54,128.15 -1.66,3.66 12.39,4.65 9.94,8.61 -1.09,1.71 -18.28,6.39 -19.33,8.32 -35.93,65.8 58.13,45.32 96.21,45.11 -13.2,-12.48 -11.89,-24.95 0.14,-37.43 -6.32,30.5 23.99,42.7 53.03,38.44 11.18,-26.97 -45.7,-46.16 -54.09,-64.07 0,-0.01 3.93,-29.23 1.4,-29.98 -50.35,-14.76 4.37,-12.84 11.38,-15.84 56.3,-23.97 4.95,-134.03 -16.06,-166.28l3.24 -2.07c9.91,3.29 20.72,8.8 31.37,7.55z"/>
    <path class="fil1" d="M3322.75 1416.61c50.3,11.51 129.42,15.49 189.4,-9.12 60.57,-24.86 90.66,-45.75 169.51,-102.21 1.89,-1.35 23.58,-21.66 25.53,-23.07l11.04 21.6c-89,62.23 -133.54,87.79 -198.2,114.32 -66.71,27.37 -143.95,22.66 -201.67,9.47l4.39 -10.99z"/>
    <path class="fil0" d="M3366.86 1269.49c11.89,144.17 151.31,83.05 275.33,38.92 -61.02,53.78 -234.93,113.07 -294.68,10.91 0,0 20.63,-51.08 19.35,-49.83z"/>
    <path class="fil1" d="M3293.4 895.63c89.85,-45.45 176.69,-74.27 276.96,-111.74 -79.04,11.6 -199.01,49.69 -289.51,106.18 -63.95,39.94 -131.25,113.86 -157.29,184.72 43.41,-42.42 77.12,-132.24 169.84,-179.16z"/>
    <path class="fil1" d="M3891.68 980.08c0.23,11.33 29.21,114.47 29.23,125.61 0.23,107.91 -9.03,207.96 -37.43,309.32 -2.59,9.34 -12.59,45.15 -19.26,79.96 -9.42,49.19 -9.92,87.09 0.15,110.27 24.43,19.12 39.62,32.99 41.5,49.73 2.08,18.5 3.99,26.72 -6.93,31.07 -0.53,-0.91 -1.05,-1.79 -1.57,-2.68l-183.4 0c1.51,3.46 3.06,6.89 4.61,10.31 -11.17,-0.99 -18.74,-3.48 -20.25,-8.88 -0.06,-0.15 -6.79,-26.97 8.33,-52.47 13.71,-41.85 14.9,-94.01 8.95,-154.44 -4.62,-47 -5.3,-108.07 1.97,-145.67 -12.94,-8.41 -31.46,-54.52 -12.33,-140.02 9.18,-40.93 -0.29,-81.49 1.48,-97.26 13.19,30.88 18.08,86.25 10.76,136.56 -3.81,26.2 -3.99,44.14 6.86,70.18 20.57,30.05 53.66,8.18 50.79,-43.03 18.87,71.16 -28.58,77.03 -43.06,78.32 -7.23,37.24 -2.55,152.95 3.65,201.35 1.1,13.1 3.19,24.83 4.17,36.51 1.61,19.38 20.65,26.41 20.45,29.36 -0.37,5.28 -20.91,3.14 -22.32,8.82 -9.1,8.87 -11.24,18.47 -16.76,29.22 -8.28,13.96 -1.76,27.6 4.07,33.63 9.91,10.24 71.75,4.26 85.86,1.99 58.38,-1.33 37.03,-42.7 19.68,-56.06 14.21,3.82 48.83,26.54 26.15,52.71 26.42,6.57 33.36,2.02 36.72,-6.93 -9.37,-50.04 -40.11,-36.01 -48.46,-46.44 -5.3,-6.67 -7.63,-21.14 -7.83,-40 -0.18,-19.99 -17.63,-23.72 -12.65,-25.89 13.92,-6.1 14.93,-16.91 15.52,-22.32 3.21,-29.18 8.85,-61.26 15.32,-89.69 2.91,-12.85 5.99,-25.01 9.01,-35.79 3.06,-11.03 6.1,-20.57 8.9,-27.97l0.07 -0.21 0.02 -0.05c17.82,-47.38 30.46,-207.97 23.95,-273.69l-5.92 -125.43zm-18.03 399.12l0.03 0 -0.03 0z"/>
    <path class="fil1" d="M3959.34 993.46c55.5,80.78 107.83,172.38 176.9,238.16 34.19,32.58 85.84,80.61 92.79,111.38l0.02 0.13 0.06 0.07c3.3,14.77 2.82,36.8 2.31,59.17 -0.6,26.46 -1.2,51.98 0.45,59.96l3.34 0.3 0.07 0.13c2.41,3.33 4.53,6.8 6.37,10.31 1.81,3.44 3.36,6.92 4.66,10.33 21.08,55.01 -15.75,48.14 -48.4,49.74 -18.35,0.91 -40.97,2.31 -59.14,2.31 -35.9,0 -66.25,1.92 -68.68,-12.48l-0.03 -0.16 -1.56 -3.85c-5.9,-28.96 11.66,-41.99 21.26,-57.74 3.84,-18 -2.26,-51.64 -8.77,-59.07l-0.08 -0.07 -0.03 -0.02 0 0c-0.98,-1.13 0.23,-7.61 -2.38,-10.06 -26.39,-24.92 -59.03,-56.38 -87.9,-80.49 -13.07,-10.88 -33.38,-27.68 -45.57,-30.02 -12.01,-2.32 -25.49,-3.48 -42.27,3l-10.76 -11.87c23.05,-8.9 42.54,-11.31 61.09,-7.74 18.41,3.55 34.93,12.83 52.35,27.37 24.79,20.69 50.41,53.1 72.07,72.44 4.06,3.61 16.39,10.09 19.76,13.31 3.32,3.09 7.49,0.37 9.25,2.37l0.07 0.06 0.03 0.05 -0.01 0c7.18,8.26 -4.13,28.75 -2.75,45.62 1.61,20.05 -3.1,20.71 9.05,44.25 -15.81,7.68 -31.26,15.98 -26.73,38.25 5.71,28.35 76.01,14.19 92.3,14.19 24.77,9.18 4.05,-17.93 16.28,-25.91 8.07,34.77 29.29,18.94 35.69,18.44 22.11,-10.88 1.35,-44.03 -32.01,-49.22 21.04,-17.46 12.2,-33.58 -0.8,-39.89 20.91,-3.16 20.9,-72.41 1.61,-96.66 -33.81,-42.56 -50.38,-62.92 -79.74,-90.9 -9.69,-9.23 -38.71,-47.94 -50.12,-50.32 -19.04,-3.96 -20.28,36.86 -24.82,13.05 -3.69,-19.26 4.71,-29.98 -2.59,-48.97 -18.63,-48.51 -60.93,-103.41 -86.26,-140.46l3.62 -18.49z"/>
    <path class="fil0" d="M4017.86 936.35c0,0 -51.25,19.02 -56.65,63.24 -5.42,44.23 -50.55,117.81 -50.55,117.81 -13.8,-59.89 39.54,-78.93 36.54,-119.32 -1.38,-18.91 12.82,-40.73 22.55,-49.58l48.11 -12.15z"/>
    <path class="fil0" d="M3897.02 840.43c-4.64,28.56 -26.72,57.52 -16.97,83.8 26.51,71.6 5.34,81.8 11.33,121.62 8.23,54.76 9.95,79.7 -36.75,43.2 -25.28,-19.76 -35.18,-57.21 -94.67,-66.58 -112.33,-17.68 -121.11,-62.27 -120.84,-62.51l19.72 -16.82c0.22,9.71 4.86,-6.18 7.51,0.88 9.94,26.65 34.68,36.81 56.32,48.04 48.82,25.39 90.11,26.03 150.51,85.6 9,-36.19 4.7,-78.43 -6.55,-137.38 -6.54,-34.39 17.62,-58.75 30.39,-99.85z"/>
    <path class="fil0" d="M3970.07 1587.13c168.61,-129.38 340.37,-60 472.31,101.71 5.36,6.57 2.44,10.83 7.71,17.72 -136.56,-160.54 -321.64,-247.22 -481.34,-101.57 -45.04,41.06 -80.58,30.92 -121.15,43.38 57.24,-44.91 80.92,-29.39 122.47,-61.24z"/>
    <path class="fil0" d="M3846.42 1633.36c39.37,-12.86 71.48,59.88 126.3,21.02 -14.41,34.65 -13.38,60.22 0.04,92.91 0.57,1.36 19.22,-141.25 140.85,-174.21 122.23,-33.11 234.98,26.98 329.86,139.33 4.6,5.45 2.08,8.77 6.62,14.49 -100.95,-114.82 -219.92,-176.67 -345.99,-128.26 -82.64,31.74 -110.34,99.91 -123.54,175.82 -3.37,19.35 -43.62,-44.48 -23.1,-98.37 -70.54,13.75 -104.78,-40.66 -111.04,-42.73z"/>
    <path class="fil0" d="M4441.54 1749.13c-38.42,-51.5 -127.95,-117.67 -196.65,-130.02 -59.89,-10.77 -113.96,14.67 -121.25,90.77 -20.09,-10.93 -30.92,6.39 -52.87,-16.4 -3.7,16.38 -11.86,28.06 -22.81,40.39 -3.84,2.91 -8.12,6.51 -12.98,10.84l-18.09 17.45c-19.44,-34.63 -20.68,-71.78 18.64,-120.66 -21.19,42.41 -27.38,75.85 -11.14,88.44 20.1,-4.25 34.34,-27.93 44.53,-56.51 12.68,21.87 29.99,13.67 46.38,20.05 11.31,-74.1 70.6,-95.33 130.75,-84.48 64.47,11.64 167.99,80.96 193.64,134.65 0,0 -0.94,6.38 1.85,5.48z"/>
    <path class="fil1" d="M4407.71 1747.69c-1.54,0.89 -72.7,-22.7 -130.97,-22.78 -45.15,-0.06 -41.29,37.49 -89.23,47.12 -15.4,3.1 -35.05,4.02 -49.43,-3.11 -23.18,-11.48 -28.55,-38.04 0.68,-47.66 19.61,-6.45 32.62,6.82 32.95,27.53 19.2,-2.52 15.48,-53.21 -32.52,-44.98 -27.12,7.42 -35.06,32.17 -27.01,52.38 10.09,9.32 20.52,18.27 31.3,26.84 13.61,3.56 30.13,2.3 43.68,-0.5 42.98,-8.86 45.37,-39.75 90.11,-43.23 39.93,-3.1 85.46,5.89 110.28,11.75 8.61,2.02 -9.34,9.21 10.02,-0.52l10.14 -2.84z"/>
    <path class="fil0" d="M4421.23 1738.63c-42.59,-33.58 -88.64,-66.55 -148.06,-68.05 -29.48,-0.75 -72.25,2.92 -90.34,55.27 -1.87,5.42 -4.91,12.48 -9.54,19.24 -3.5,5.12 -9.2,9.32 -12.94,8.23 16.15,8.68 21.95,-2 25.6,-11.01 18.85,-46.52 44.11,-61.71 87.85,-61.14 59.04,0.73 106.95,30.63 146.82,67.03l0.61 -9.57z"/>
    <path class="fil0" d="M4241.64 1746.45c-21.69,22.09 -21.86,51.86 -11.19,68.35 18.57,28.69 66.83,26.52 68.55,-6.44 4.84,-28.51 -40.8,-45.34 -46.6,-8.86 -2.91,-16.4 8,-29.39 22.08,-32.46 32.46,-7.05 50.69,24.55 39.21,52.07 -15.68,37.53 -63.66,34.38 -84.01,15.42 -22.66,-21.08 -24.9,-60.6 11.96,-88.08z"/>
    <path class="fil0" d="M4447.37 1807.61c4.62,0.9 9.81,-3.6 9.98,-5.42 4.78,-48.41 -19.81,-174.14 -67.25,-194.58 25.66,-16.63 40.85,-3.4 54.75,12.43 16.79,19.13 25.7,97.56 29.05,100.18 0,-5.67 -12.88,-67.76 -9.05,-112.96 1.53,-18.15 14.69,-38.96 28.9,-49.92l0 -10.87c-25.24,15.78 -40.64,33.8 -40.64,59.59 -24.92,-17.12 -44.06,-25.42 -83.65,-2.87 50.06,27.26 94.23,156.41 77.91,204.42z"/>
    <path class="fil0" d="M3171.61 1942.24c211.33,140.85 426.62,65.31 591.99,-110.75 6.73,-7.15 3.07,-11.79 9.66,-19.3 -171.16,174.81 -400.36,266.43 -600.52,107.88 -56.46,-44.72 -97.52,-22.11 -131.07,13.4 53.73,-15.82 77.88,-25.92 129.94,8.77z"/>
    <path class="fil0" d="M3043.65 1932.43c11.28,-45.77 26.56,-94.18 112.58,-67.62 -18.05,-34.61 -15.26,-37.85 -21.65,-74.74 -0.15,-0.8 24.09,34.42 73.24,75.84 35.89,30.23 84.61,66.63 148.87,80.6 128.96,28.02 271.82,-21.48 387.34,-121.26 10.54,-9.11 20.58,-18.46 30.4,-27.93 -1.02,-1.59 -2.05,-3.2 -3.04,-4.81 -10.32,9.83 -20.96,19.5 -32.39,28.78 -119.21,96.79 -258,150.53 -401.96,106.43 -43.69,-13.38 -84.93,-41.9 -117.31,-72.73 -44.39,-42.25 -76.32,-86.91 -113.23,-85.33 16.96,40.17 7.88,42.59 22.84,74.48 -88.43,-13.76 -94.45,64.4 -85.69,88.29z"/>
    <path class="fil0" d="M3144.36 1791.98c9.53,-14.79 40.57,13.06 57.12,18.62 -16.59,-34.63 10.06,-42.35 31.09,-47.25 1.8,-0.41 18.41,99.63 158.45,132.71 121.06,28.62 255.48,-28.5 362.84,-132.98 -0.98,-1.7 -1.93,-3.41 -2.88,-5.13 -111.59,101.89 -243.12,161.95 -378.91,116.7 -95.21,-31.72 -124,-95.13 -136.75,-131.86 -19.46,1.9 -57.36,21.56 -43.6,53.47 -31.36,-26.39 -66.53,-28.25 -77.48,-24.41l30.12 20.13z"/>
    <path class="fil0" d="M3733.22 1724.47c-39.56,17.58 -99.35,29.59 -141.72,21.87 -56.87,-10.36 -93.45,-52.52 -82.84,-94.94 -14.71,0.18 -52.49,6.69 -47.03,58.12 3.19,-20.6 15.76,-45.03 34.73,-44.68 -9.83,36.98 30.23,79.03 98.19,90.1 42.68,6.95 101.37,-4.17 140.82,-24.26 0.3,-0.13 0.57,-0.26 0.82,-0.39 -0.98,-1.93 -2,-3.87 -2.97,-5.82z"/>
    <path class="fil0" d="M3704.63 1800.21c-20.63,12.59 -51.69,30.09 -76.13,38.32 -61.6,20.68 -142.2,6.23 -175.04,0.06 -13.07,-2.45 -29.62,10.57 -35.72,22.71 -12.69,-2.34 -32.72,-37.26 1,-69.82 10.18,2.67 14.93,2.83 15.64,4.71 -7.29,2.71 -13.16,5.07 -17.97,10.29 -11.41,12.37 -10.92,29.32 2.47,33.06 21.89,-24.84 50.16,-13.33 77.92,-5.55 36.04,10.13 88.92,11.02 130.92,-1.16 26.16,-7.58 54.13,-24.98 77.68,-36.93 4.21,2.69 0.61,3.46 -0.77,4.31z"/>
    <path class="fil0" d="M3419.44 1793.98c-32.1,-7.86 -42.28,-48.75 -59.74,-59.18 39.82,-38.53 121.93,52.1 198.78,55.18 54.18,2.19 119.43,-12.78 183.55,-48.44 1.25,2.35 2.49,4.68 3.76,7 -104.06,60.27 -228.77,68.84 -325.79,3.89 -11.83,-7.91 -23.74,-14.72 -37.04,-13.76 20.41,22.13 14.38,34.23 52.83,57.15l-16.35 -1.84z"/>
    <path class="fil0" d="M3492.26 1736.8c-22.04,-15.37 -27.38,-23.77 -77.05,1.31l-14.17 -9.52c46.57,-22.9 61.02,-26.9 91.22,8.21z"/>
    <path class="fil0" d="M3467.26 1699.14c-42.47,-31.3 -171.06,27.07 -259.81,-12.91 39.18,98.21 100.65,86.78 259.81,12.91zm-42.74 9.8c-29.42,-15.84 -130.09,17.72 -191.58,-2.52 27.14,49.74 81.31,39.94 191.58,2.52z"/>
    <path class="fil0" d="M3811.02 1850.51c6.61,121.26 32.71,205.81 114.38,330.24 14.04,21.39 11.85,33.6 15.28,69.78 40,3.14 82.51,-15.19 77.57,-55.55 27.03,13.73 65.29,36.25 96.87,16.65 -1.51,-40.14 -23.27,-64.01 -52.24,-88.73 8.47,-1.63 15.39,-11.18 22.26,-30.8 -11.77,-3.41 -40.53,-6.22 -69.44,-19.48 -42.91,-19.68 -91.61,-55.81 -116.4,-121.41 -4.18,-4.07 -8.33,-8.2 -12.42,-12.34 6.91,71.77 70.38,126.75 118.91,148.11 26.05,11.48 56.98,10.7 63.82,13.81 -5.27,13.06 -16.18,17.49 -28.81,17.05 27.08,25.15 54.56,48.8 54.93,85.26 -33.11,6.49 -68.66,-14.77 -99.98,-41.73 29.37,68.08 -15.26,70.35 -39.62,77.2 0.64,-25.96 -6.25,-56.3 -17.46,-72.71 -79.16,-115.91 -107.4,-205.93 -114.53,-298.19 -4.43,-5.66 -8.81,-11.39 -13.12,-17.16z"/>
    <path class="fil0" d="M4026.67 2153.93c-85.95,-45.07 -159.36,-116.81 -179.3,-258.03 5.07,5.91 10.2,11.76 15.42,17.52 9.87,118.27 84.68,184.78 163.88,240.51z"/>
    <path class="fil0" d="M3704.98 1955.3c5.65,28.25 -8.17,52.07 -23.75,59.98 -27.14,13.79 -61.66,-11.58 -47.5,-38.69 9.79,-25.11 51.31,-16.2 38.5,15.75 9.82,-11.66 7.88,-27.36 -1.07,-36.7 -20.61,-21.51 -48.87,-5.24 -53.28,22.33 -6.03,37.6 30.8,58.57 54.67,53.42 26.58,-5.72 46.75,-36.14 32.43,-76.09z"/>
    <path class="fil0" d="M3778.02 1802.96c-19.99,21.34 -51.19,59.76 -67.72,106.32 -7.44,20.94 -8.8,43.61 -7.34,67.58 1.6,26.33 7.51,49.29 12.49,74.78 3.53,18 3.39,38.01 -15.61,48.21 21.26,-3.87 25.82,-17.75 26.1,-32.19 0.5,-26.58 -3.2,-54.18 -4.43,-80.77 -1.09,-24.07 -1.3,-46.84 2.22,-63.85 10.91,-52.84 31.15,-84.85 56.13,-117.24 -0.62,-0.95 -1.24,-1.88 -1.84,-2.84z"/>
    <path class="fil0" d="M3800.06 1835.46c-7.03,13.39 -14.15,30.57 -15.64,47.21 -2.16,24.4 9.64,76.32 22.75,95.14 5.53,7.93 0.73,-14.44 0.84,-15.28 -1.28,-3.8 -2.45,-7.53 -3.56,-11.21 -13.78,-46.14 -13.63,-83.33 -2.78,-113.6l-1.61 -2.26z"/>
    <path class="fil0" d="M3825.8 1978.87c-16.1,13.19 -26.28,18.84 -42.97,15.18 10.78,5.17 21.85,15.4 27,37.88 -10.38,2.44 -38.26,13.16 -50.41,2.84 1.66,22.68 -6.64,46.49 -19.54,61.63 -12.9,15.13 -29.41,24.08 -42.19,21.94 1.92,-0.83 2.93,-8.02 5.1,-8.17 25.55,-1.86 33.32,-12.35 39.31,-32.38 5.58,-18.62 0.86,-46.44 -6.21,-79.47 21.03,31.56 42.67,28.03 55.06,21.24 -7.26,-24.57 -19.78,-22.56 -31.66,-48.29 16.44,2.04 32.29,19.17 49.32,6.09 -5.91,-10.41 -12.98,-33.04 -8.83,-43.46 8.69,29.82 17.94,39.97 26.02,44.97z"/>
    <path class="fil0" d="M3770.68 1865.79c-12.94,29.42 -24.82,71.88 -9.92,108.09 3.25,7.93 18.49,26.36 18.6,25.51 -1.27,-3.78 -3.75,-19.16 -6.29,-22.85 -16.93,-24.61 -13.25,-74.39 -0.05,-111.57l-2.34 0.82z"/>
    <path class="fil0" d="M3715.34 1877.21c-19.51,17.54 -47.31,40.43 -48.53,72.04 -0.26,6.93 9.47,30.17 9.85,29.57 0.33,-3.23 3.68,-15.39 3.05,-18.96 -4.21,-23.72 15.32,-59.31 37.62,-82.47l-1.99 -0.18z"/>
    <path class="fil0" d="M3744.52 2043.24c41.83,-42.35 73.84,41.81 123.78,20.63 -32.02,74.32 -96.68,39.29 -123.78,-20.63zm16.26 6.11c19.14,-14.5 63.91,37.41 93.59,26.15 -42.63,35.97 -80.8,4.07 -93.59,-26.15z"/>
    <path class="fil0" d="M3703.41 1671.92c1.15,3.43 -36.06,1.15 -32.57,35.46 3.5,34.29 -24.42,44.57 -24.42,44.57l54.65 -12.57 33.36 -12.53c-6,-11.86 -11.69,-23.89 -17.15,-36.06 -7.77,-11.1 -14.37,-20.31 -13.87,-18.87z"/>
    <path class="fil0" d="M4454.85 1770.85c-0.89,0.89 -3.05,7.19 -3.69,5.84 -27.91,-58.62 -83.14,-17.3 -63.84,18.52 10.5,19.44 43,19.26 45.69,-1.49 3.13,-18.46 -25.9,-26.88 -29.66,-3.26 -1.89,-10.62 5.18,-19.03 14.3,-21.02 21.03,-4.56 32.84,15.92 25.41,33.76 -10.16,24.3 -45.97,24 -59.5,8.31 -27.44,-31.75 -8.29,-71.11 31.61,-72.59 33.11,-1.25 37.7,33.39 39.68,31.93z"/>
    <path class="fil0" d="M4357.03 1859.69c14.38,-6.71 28.02,6.69 8.31,10.53 -31.2,6.07 -52.51,-24.89 -38.19,-48.63 9.65,-16 37.96,-17.55 42.94,5.02 3.15,18.47 -28.21,23.73 -31.97,0.1 -1.89,10.62 4.27,20.39 18.44,22.83 21.2,3.62 34.68,-16.83 27.25,-34.65 -10.16,-24.31 -46,-24 -59.52,-8.33 -27.4,31.74 -9.86,73.03 32.9,72.21 67,-1.33 16.22,-45.21 -0.16,-19.08z"/>
    <path class="fil1" d="M4492.81 1913.18l-0.07 0 0 -0.04c-77.17,0 -150.77,-15.33 -217.86,-43.06 -11.19,-4.63 -21.95,-9.49 -32.23,-14.51l0 -0.02c-54.29,-26.53 -103.71,-61.45 -146.53,-103.04 -12.61,-12.23 -20.2,-19.27 -26.47,-19.77l-0.03 0c-6.27,-0.5 -14.43,5.15 -28.93,18.13l-31.03 29.9 -0.12 0.11 -1.67 1.55c-1.8,1.64 -3.53,3.25 -4.83,4.52 -8.65,8.48 -11.72,16.59 12.9,40.81l0.02 0 0.05 0.05 0 0.02c17.11,16.85 35.14,32.83 54.03,47.83 18.88,15 38.57,29.01 59.01,41.96 105.1,66.6 229.92,105.22 363.76,105.22l0 -0.05 0.08 0 0 0.05c92.92,-0.01 181.51,-18.65 262.18,-52.33 13.26,-5.54 26.2,-11.42 38.76,-17.63 65.26,-32.23 124.57,-74.63 175.83,-125.08 24.64,-24.26 21.57,-32.37 12.91,-40.85l-0.03 0c-1.84,-1.83 -3.28,-3.14 -4.8,-4.52l-1.66 -1.55 -0.13 -0.11 -31.01 -29.9c-14.52,-12.98 -22.67,-18.63 -28.95,-18.13l-0.03 0c-6.25,0.5 -13.83,7.52 -26.42,19.72l0.03 0.03 -0.05 0.03 -0.07 0.05c-14.37,13.93 -29.42,27.1 -45.12,39.42 -15.61,12.26 -32.03,23.8 -49.17,34.55 -87.58,54.88 -191.26,86.64 -302.35,86.64zm-0.07 -16.65l0 -0.02 0.07 0c107.83,0 208.39,-30.77 293.28,-83.97 16.38,-10.28 32.33,-21.49 47.72,-33.57 15.28,-12 29.89,-24.76 43.73,-38.21l-0.02 -0.01 0.06 -0.06 0.06 -0.02c15.39,-14.94 24.92,-23.55 36.96,-24.52l0 0c12.04,-0.99 23.41,6.04 41.72,22.41l0.23 0.22 31.12 30 0 -0.01 1.67 1.55c1.97,1.82 3.92,3.61 5.19,4.86l-0.03 0.01c15.89,15.59 22.57,29.45 -12.85,64.32 -52.52,51.72 -113.33,95.16 -180.26,128.21 -13.14,6.48 -26.39,12.51 -39.71,18.08 -82.65,34.53 -173.5,53.62 -268.79,53.64l0 0.02 -0.08 0 0 -0.02c-137.25,0 -265.17,-39.57 -372.9,-107.82 -20.93,-13.29 -41.13,-27.65 -60.46,-43.01 -19.33,-15.34 -37.83,-31.73 -55.42,-49.03l-0.01 0 -0.06 -0.04 0 -0.03c-35.44,-34.88 -28.75,-48.73 -12.84,-64.33 1.82,-1.8 3.47,-3.31 5.15,-4.86l1.67 -1.55 0 0.01 31.12 -30 0.23 -0.22c18.31,-16.37 29.7,-23.4 41.71,-22.41l0 0c12.06,0.97 21.58,9.58 36.96,24.52 41.57,40.36 89.52,74.24 142.21,100l0.03 0c10.51,5.13 20.95,9.84 31.25,14.12 65.06,26.89 136.43,41.74 211.29,41.74z"/>
    <path class="fil1" d="M4492.81 2200.44l-0.08 0 0 -0.04c-88.14,-0.02 -173.12,-13.23 -253.08,-37.79 -38.98,-11.96 -76.86,-26.68 -113.39,-43.9 -187.46,-88.36 -337.5,-242.38 -420.06,-432.1l-5.06 -11.57 12.83 0 183.4 0 5.01 0 2.39 4.32 0.02 -0.01c16.28,28.55 34.56,55.77 54.62,81.44 20.12,25.69 42.09,49.94 65.71,72.49 121.34,115.87 286.16,187.13 467.69,187.13l0 -0.04 0.06 0 0 0.04c84,-0.02 164.46,-15.3 238.74,-43.22 24.28,-9.13 47.81,-19.56 70.4,-31.16 116.99,-60.01 214.09,-153.08 278.84,-266.74l2.42 -4.25 4.96 0 183.42 0 12.82 0 -5.05 11.57 -0.02 0.08c-18.45,42.35 -40.22,82.9 -64.98,121.27 -24.73,38.33 -52.55,74.64 -83.11,108.58 -156.84,174.2 -384.79,283.84 -638.5,283.86l0 0.04zm-0.08 -16.65l0 -0.02 0.08 0 0 0.02c248.68,0 472.09,-107.5 625.85,-278.26 29.84,-33.13 57.1,-68.75 81.47,-106.49 22.06,-34.2 41.66,-70.07 58.57,-107.34l-165.54 0c-66.3,114.48 -164.85,208.26 -283.33,269.05 -23.46,12.04 -47.58,22.74 -72.2,32 -76.06,28.6 -158.56,44.25 -244.76,44.26l0 0.03 -0.06 0 0 -0.03c-186.15,-0.01 -355.12,-73.04 -479.5,-191.83 -24.17,-23.07 -46.66,-47.89 -67.27,-74.24 -19.67,-25.13 -37.61,-51.62 -53.61,-79.24l-165.52 0c81.96,180.7 226.73,327.25 406.65,412.04 35.65,16.8 72.78,31.21 111.13,42.99 78.42,24.08 161.74,37.06 248.04,37.06z"/>
    <path class="fil0" d="M5282.21 1671.92c-1.17,3.43 36.04,1.15 32.56,35.46 -3.49,34.29 24.43,44.57 24.43,44.57l-54.66 -12.57 -39.55 -14.87c0,0 38.38,-56.02 37.22,-52.59z"/>
    <path class="fil1" d="M3798.95 1752.46l53.89 -33.09 24.96 39.27 -9.13 5.6 -18.15 -28.57 -11.95 7.34 16.9 26.59 -9.07 5.58 -16.9 -26.6 -14.67 9.01 18.81 29.58 -9.08 5.58 -25.61 -40.29zm48.65 37.59l8.33 9.21c-2.96,3.02 -4.54,6.02 -4.77,8.98 -0.24,2.96 0.77,5.99 3.07,9.09 2.42,3.28 4.96,5.25 7.61,5.88 2.66,0.68 4.92,0.33 6.81,-1.02 1.22,-0.87 1.99,-1.95 2.32,-3.26 0.35,-1.32 0.18,-3.07 -0.47,-5.26 -0.46,-1.5 -1.75,-4.77 -3.81,-9.78 -2.65,-6.44 -3.79,-11.5 -3.41,-15.13 0.53,-5.13 2.84,-9.15 6.9,-12.04 2.63,-1.87 5.6,-2.89 8.96,-3.06 3.35,-0.17 6.65,0.7 9.88,2.58 3.22,1.9 6.25,4.79 9.12,8.67 4.71,6.35 6.8,12.12 6.36,17.35 -0.47,5.22 -3.01,9.6 -7.61,13.14l-7.99 -9.87c2.32,-2.32 3.53,-4.62 3.61,-6.88 0.11,-2.28 -0.91,-4.84 -3.04,-7.7 -2.18,-2.96 -4.51,-4.86 -6.99,-5.65 -1.59,-0.52 -3.05,-0.29 -4.39,0.66 -1.21,0.87 -1.89,2.12 -2,3.76 -0.15,2.06 1,6.01 3.51,11.82 2.46,5.82 3.93,10.37 4.43,13.65 0.47,3.29 0.11,6.4 -1.11,9.33 -1.22,2.9 -3.45,5.53 -6.69,7.85 -2.94,2.09 -6.3,3.27 -10.04,3.5 -3.77,0.21 -7.38,-0.68 -10.79,-2.74 -3.43,-2.04 -6.77,-5.25 -10.01,-9.64 -4.72,-6.4 -6.85,-12.37 -6.38,-17.94 0.47,-5.57 3.34,-10.76 8.59,-15.5zm31.77 73.86l40.43 -33.35 -12.12 -14.18 8.26 -6.79 32.45 38.01 -8.24 6.79 -12.09 -14.17 -40.43 33.36 -8.26 -9.67zm74.19 -10.85l16.3 16.59c3.67,3.72 6.18,6.84 7.52,9.37 1.8,3.37 2.62,6.97 2.43,10.77 -0.15,3.78 -1.22,7.57 -3.17,11.32 -1.97,3.73 -5.09,7.65 -9.39,11.71 -3.74,3.58 -7.44,6.2 -11.06,7.86 -4.43,2.03 -8.7,2.99 -12.79,2.83 -3.11,-0.08 -6.42,-1.05 -9.93,-2.89 -2.6,-1.37 -5.55,-3.75 -8.86,-7.12l-16.75 -17.06 45.7 -43.38zm1.18 16.41l-30.26 28.73 6.64 6.77c2.49,2.53 4.42,4.23 5.83,5.09 1.82,1.1 3.65,1.72 5.5,1.85 1.84,0.12 4.09,-0.49 6.74,-1.82 2.64,-1.33 5.75,-3.68 9.28,-7.03 3.54,-3.36 5.94,-6.23 7.23,-8.63 1.28,-2.42 1.93,-4.69 1.9,-6.78 -0.03,-2.11 -0.69,-4.21 -1.98,-6.25 -0.95,-1.53 -3.26,-4.15 -6.88,-7.86l-4 -4.07zm1.54 73.73l8.14 -8.89 9.05 8.01 -8.15 8.9 -9.04 -8.02zm79.07 -15.44l20 15.38c3.98,3.03 6.82,5.46 8.5,7.28 1.68,1.83 2.89,3.84 3.6,6.06 0.71,2.22 0.91,4.54 0.57,7.05 -0.33,2.49 -1.35,4.81 -3.04,6.92 -1.83,2.32 -4.14,3.95 -6.93,4.9 -2.8,0.96 -5.66,1.09 -8.58,0.4 2.34,3.2 3.52,6.51 3.47,9.84 -0.02,3.39 -1.16,6.47 -3.44,9.32 -1.76,2.23 -4.01,4.02 -6.76,5.32 -2.74,1.29 -5.54,1.88 -8.37,1.73 -2.84,-0.14 -5.71,-1.1 -8.65,-2.87 -1.8,-1.12 -5.96,-4.12 -12.44,-9.03l-17.06 -13.08 39.13 -49.22zm3.59 15.95l-9.04 11.39 6.63 5.08c3.94,3.03 6.43,4.85 7.48,5.48 1.88,1.13 3.72,1.59 5.47,1.37 1.77,-0.22 3.27,-1.12 4.55,-2.71 1.21,-1.53 1.76,-3.09 1.67,-4.7 -0.11,-1.6 -0.92,-3.14 -2.44,-4.63 -0.91,-0.89 -3.75,-3.16 -8.5,-6.81l-5.82 -4.47zm-15.54 19.58l-10.46 13.16 9.35 7.18c3.64,2.79 6.03,4.48 7.17,5.02 1.72,0.9 3.45,1.17 5.24,0.85 1.77,-0.29 3.35,-1.33 4.74,-3.08 1.18,-1.47 1.8,-3.01 1.89,-4.6 0.08,-1.59 -0.37,-3.15 -1.36,-4.68 -1.01,-1.51 -3.82,-4.06 -8.42,-7.58l-8.15 -6.27zm41.46 61.39l14.57 -22.04 0.54 -42.79 12.59 8.06 -1.13 28.73 25.97 -12.89 12.38 7.92 -39.66 17.89 -14.52 21.98 -10.74 -6.86zm96.62 27.01l4.7 -9.48 24.85 11.93 -11.1 22.36c-3.56,1.12 -8.06,1.47 -13.52,1.03 -5.44,-0.46 -10.52,-1.81 -15.23,-4.05 -5.95,-2.86 -10.56,-6.6 -13.78,-11.18 -3.2,-4.61 -4.8,-9.72 -4.77,-15.38 0.06,-5.65 1.41,-11.18 4.08,-16.56 2.89,-5.83 6.72,-10.44 11.47,-13.79 4.74,-3.35 10.11,-5.08 16.14,-5.19 4.57,-0.12 9.6,1.14 15.04,3.74 7.1,3.41 11.92,7.53 14.44,12.36 2.55,4.82 3.1,10.09 1.69,15.81l-12.49 -3.37c0.56,-3.16 0.12,-6.07 -1.32,-8.73 -1.43,-2.66 -3.79,-4.77 -7.12,-6.37 -5.03,-2.42 -9.82,-2.76 -14.35,-1.06 -4.55,1.73 -8.33,5.67 -11.39,11.86 -3.31,6.65 -4.28,12.36 -2.92,17.15 1.36,4.77 4.48,8.32 9.36,10.66 2.42,1.17 5.08,1.85 7.96,2.08 2.89,0.24 5.54,0.11 7.92,-0.38l3.55 -7.13 -13.21 -6.31zm37.74 8.21c2.32,-5.95 5.16,-10.59 8.56,-13.94 2.5,-2.45 5.38,-4.43 8.63,-5.91 3.26,-1.47 6.5,-2.26 9.72,-2.34 4.31,-0.16 8.86,0.69 13.69,2.52 8.74,3.28 14.69,8.58 17.86,15.9 3.16,7.3 2.89,15.7 -0.81,25.19 -3.69,9.42 -9.16,15.8 -16.45,19.15 -7.27,3.35 -15.28,3.37 -23.99,0.09 -8.82,-3.33 -14.8,-8.62 -17.94,-15.86 -3.15,-7.25 -2.9,-15.53 0.73,-24.8zm12.49 4.26c-2.58,6.59 -2.97,12.2 -1.22,16.77 1.79,4.57 5.06,7.75 9.84,9.56 4.76,1.8 9.34,1.6 13.72,-0.65 4.38,-2.21 7.9,-6.69 10.54,-13.46 2.61,-6.68 3.05,-12.22 1.38,-16.64 -1.71,-4.43 -5.03,-7.56 -9.95,-9.41 -4.94,-1.87 -9.57,-1.7 -13.92,0.48 -4.29,2.2 -7.76,6.62 -10.39,13.35zm62.51 53.24l-3.15 -66.26 13.32 4 1.61 48.83 28.63 -39.73 13.02 3.91 -40.33 53.18 -13.1 -3.93zm44.79 12.9l11.03 -61.49 46.4 8.03 -1.88 10.41 -33.75 -5.85 -2.44 13.64 31.4 5.44 -1.86 10.36 -31.4 -5.44 -3.02 16.72 34.97 6.07 -1.86 10.36 -47.59 -8.25zm61.98 10.04l6.63 -62.11 26.86 2.78c6.77,0.69 11.59,1.76 14.55,3.19 2.94,1.43 5.18,3.66 6.72,6.71 1.54,3.05 2.09,6.39 1.7,10.06 -0.5,4.67 -2.31,8.38 -5.41,11.12 -3.1,2.75 -7.49,4.24 -13.12,4.45 2.59,1.88 4.69,3.85 6.28,5.92 1.59,2.08 3.65,5.7 6.18,10.84l6.43 12.92 -15.27 -1.58 -7.76 -14.47c-2.77,-5.18 -4.7,-8.45 -5.76,-9.83 -1.08,-1.38 -2.26,-2.36 -3.55,-2.98 -1.32,-0.6 -3.42,-1.06 -6.35,-1.36l-2.59 -0.26 -2.77 25.92 -12.77 -1.32zm16.6 -34.53l9.43 0.99c6.12,0.62 9.98,0.77 11.55,0.42 1.57,-0.36 2.86,-1.11 3.86,-2.27 0.99,-1.14 1.59,-2.65 1.79,-4.51 0.23,-2.1 -0.16,-3.84 -1.17,-5.24 -0.98,-1.41 -2.5,-2.38 -4.54,-2.94 -1.02,-0.24 -4.12,-0.64 -9.3,-1.17l-9.93 -1.02 -1.69 15.74zm51.17 41.07l2.22 -62.42 12.48 0.44 24.51 42.57 1.49 -41.69 11.91 0.41 -2.21 62.42 -12.88 -0.45 -24.14 -41.58 -1.45 40.71 -11.93 -0.41zm67.37 1.1l-4.44 -62.32 19.15 -1.3 14.53 41.7 8.33 -43.29 19.21 -1.31 4.43 62.31 -11.89 0.8 -3.47 -49.03 -9.11 49.9 -12.32 0.85 -16.03 -48.18 3.49 49.04 -11.88 0.83zm77.59 -5.92l-11.03 -61.49 46.38 -8.05 1.87 10.4 -33.75 5.87 2.46 13.62 31.4 -5.45 1.86 10.37 -31.41 5.43 2.99 16.76 34.96 -6.07 1.86 10.36 -47.59 8.25zm61.88 -9.29l-16.45 -60.33 12.07 -3.18 36.1 33.68 -10.98 -40.29 11.52 -3.03 16.44 60.33 -12.45 3.28 -35.46 -32.84 10.73 39.35 -11.52 3.03zm79.14 -21.54l-17.17 -49.07 -17.82 6.04 -3.51 -9.99 47.75 -16.17 3.51 10.02 -17.79 6 17.18 49.05 -12.15 4.12zm48.63 -49.97c-2.73,-5.77 -4.15,-11.01 -4.25,-15.73 -0.06,-3.48 0.51,-6.87 1.67,-10.21 1.2,-3.31 2.88,-6.15 5.04,-8.5 2.87,-3.15 6.65,-5.78 11.35,-7.93 8.48,-3.88 16.49,-4.41 24.04,-1.57 7.54,2.83 13.51,8.86 17.89,18.07 4.33,9.15 5.19,17.44 2.59,24.93 -2.62,7.47 -8.15,13.15 -16.59,17.01 -8.57,3.94 -16.59,4.48 -24.1,1.67 -7.49,-2.81 -13.36,-8.73 -17.64,-17.74zm11.79 -5.87c3.05,6.41 6.87,10.58 11.44,12.5 4.59,1.92 9.19,1.83 13.83,-0.29 4.63,-2.12 7.66,-5.51 9.08,-10.17 1.4,-4.64 0.56,-10.23 -2.56,-16.79 -3.08,-6.5 -6.82,-10.67 -11.23,-12.54 -4.4,-1.87 -9,-1.68 -13.8,0.5 -4.79,2.18 -7.88,5.59 -9.29,10.16 -1.38,4.56 -0.56,10.11 2.53,16.63zm69.14 2.54l-31.76 -54.07 37.73 -21.41 5.38 9.16 -26.62 15.09 7.51 12.79 22.98 -13.03 5.38 9.15 -22.97 13.05 13.5 22.97 -11.13 6.3zm70.68 -42.4l-36.45 -51.14 10.52 -7.23 16.17 22.71 5.05 -37.33 14.12 -9.71 -5.38 33.4 42.91 17.01 -13.6 9.35 -31.42 -14.16 -2.43 14.42 11.01 15.46 -10.5 7.22zm54.76 -38.73l-40.84 -47.82 36.08 -29.76 6.91 8.09 -26.25 21.65 9.04 10.61 24.45 -20.15 6.87 8.05 -24.43 20.15 11.11 13.02 27.18 -22.43 6.89 8.07 -37.01 30.52zm48.13 -39.75l-45.72 -43.39 18.77 -19.1c4.71,-4.8 8.55,-7.9 11.5,-9.29 2.97,-1.41 6.15,-1.76 9.52,-1.08 3.39,0.69 6.43,2.31 9.13,4.89 3.44,3.25 5.3,6.95 5.59,11.05 0.29,4.07 -1.23,8.38 -4.52,12.87 3.1,-0.86 5.97,-1.26 8.61,-1.21 2.66,0.04 6.8,0.67 12.49,1.89l14.32 2.97 -10.66 10.85 -16.4 -2.9c-5.84,-1.04 -9.64,-1.56 -11.41,-1.59 -1.76,-0.01 -3.29,0.29 -4.59,0.93 -1.29,0.64 -2.95,1.99 -5,4.08l-1.8 1.83 19.08 18.11 -8.91 9.09zm-17.46 -34.13l6.57 -6.7c4.29,-4.35 6.77,-7.24 7.47,-8.68 0.68,-1.43 0.87,-2.9 0.56,-4.39 -0.32,-1.47 -1.16,-2.85 -2.52,-4.18 -1.54,-1.46 -3.19,-2.22 -4.92,-2.32 -1.74,-0.09 -3.46,0.5 -5.15,1.72 -0.82,0.65 -3.04,2.8 -6.66,6.47l-6.94 7.09 11.59 10.99zm101.18 -56.4l-8.99 10.51 -14.62 -4.94 -16.32 19.12 7.69 13.07 -8.75 10.24 -32.75 -58.78 8.71 -10.21 65.03 20.99zm-34.44 1.91l-23.69 -8.31 12.55 21.36 11.14 -13.05zm41.15 -10.79l-50.98 -36.41 7.54 -10.2 42.32 30.23 18.75 -25.36 8.66 6.19 -26.29 35.55zm63.61 -93.11l-7.4 11.66 -15.19 -2.91 -13.45 21.18 9.47 11.89 -7.22 11.33 -40.76 -53.72 7.18 -11.31 67.37 11.88zm-33.82 6.61l-24.66 -4.97 15.47 19.42 9.19 -14.45z"/>
    <path class="fil1" d="M4157.5 1822.34l42.83 25.75c9.3,5.59 11.42,16.31 6.34,32.15l-1.62 4.27c-6.71,11.18 -16.82,16.02 -30.31,14.57l5.8 27.55 -0.78 1.29 -19.55 -11.75 -9.27 -48.65 0.37 -0.58 23.84 14.33c5.51,3.31 11.06,1.73 16.64,-4.73 3.39,-5.67 2.49,-10.81 -2.77,-15.44l-27.7 -16.66 -31.18 51.91 -2.04 0.52 -11.3 -6.8 -0.5 -2.03 39.15 -65.18 2.05 -0.52zm109.78 144.2l-44.1 -16.94c-4.39,-1.68 -7.43,-4.47 -9.09,-8.35 -1.66,-3.88 -1.67,-7.95 -0.06,-12.17l22.87 -59.57 14.83 5.69 -22.86 59.57 44.1 16.93 22.88 -59.57 14.7 5.65 -22.88 59.57c-1.57,4.14 -4.24,7.14 -7.95,9.01 -3.73,1.87 -7.88,1.92 -12.44,0.18zm133.93 -31.27l-31.05 -6.03 -12.18 62.64 -15.46 -3 12.17 -62.65 -30.92 -6.01 3.03 -15.58 77.44 15.04 -3.03 15.59zm22.85 -11.36l49.9 2.61c10.85,0.58 17.74,9.05 20.69,25.43l0.58 4.52c-0.68,13.01 -7.31,22.04 -19.91,27.09l18.04 21.61 -0.08 1.49 -22.79 -1.19 -31.01 -38.6 0.05 -0.67 27.79 1.45c6.42,0.34 10.57,-3.67 12.46,-11.99 0.34,-6.6 -2.88,-10.72 -9.7,-12.34l-32.26 -1.69 -3.17 60.47 -1.57 1.41 -13.15 -0.69 -1.41 -1.56 3.97 -75.94 1.57 -1.41zm162.69 76.53l-47.21 4.13c-8.38,0.74 -13.73,-2.33 -16.07,-9.21 -0.49,-1.59 -0.83,-3.34 -1,-5.24l-4.18 -47.74c-0.36,-4.13 0.8,-7.95 3.51,-11.4 2.69,-3.47 6.29,-5.4 10.8,-5.79l47.2 -4.13c4.41,-0.38 8.28,0.85 11.57,3.7 3.29,2.84 5.13,6.43 5.5,10.75l4.18 47.74c0.93,10.55 -3.85,16.29 -14.3,17.19zm-1.39 -15.82l-4.18 -47.73 -47.2 4.12 4.18 47.74 47.2 -4.13zm123.84 -14.21l-9.52 2.74 -65.45 -35.19 14.29 49.85 -15.14 4.35 -21.96 -76.61 9.4 -2.69 65.58 35.14 -14.29 -49.85 15.13 -4.34 21.96 76.6zm45.61 -18.41l-14.7 5.63 -28.55 -74.38 14.7 -5.65 28.55 74.4zm110.64 -57.55l-18.89 10.46 -36.65 -13.21 -8.23 38.09 -19 10.54 13.85 -53.17 -52.47 -16.54 18.98 -10.52 36.67 13.19 8.23 -38.07 18.88 -10.48 -13.66 53.21 52.29 16.5z"/>
    <path class="fil1" d="M4493.67 690.07c98.56,0 187.77,39.93 252.35,104.49 64.65,64.62 104.62,153.86 104.62,252.35 0,98.62 -39.94,187.89 -104.52,252.47 -64.58,64.58 -153.83,104.52 -252.45,104.52 -98.55,-0.08 -187.79,-40.02 -252.36,-104.62 -64.55,-64.58 -104.48,-153.8 -104.48,-252.37 0,-98.54 39.94,-187.77 104.51,-252.33 64.56,-64.57 153.79,-104.51 252.33,-104.51zm226.51 130.48c-57.93,-57.91 -138.01,-93.74 -226.51,-93.74 -88.39,0 -168.42,35.83 -226.35,93.75 -57.92,57.93 -93.75,137.96 -93.75,226.35 0,88.51 35.83,168.59 93.73,226.53 57.92,57.95 137.98,93.79 226.37,93.79 88.47,-0.07 168.53,-35.9 226.47,-93.84 57.93,-57.94 93.75,-138.01 93.75,-226.48 0,-88.45 -35.8,-168.48 -93.71,-226.36z"/>
    <path class="fil0" d="M4162.84 1005.13l210.79 -1.33c8.96,-6.51 10.35,-12.64 7.78,-21.99l-147.64 -141.23 -8.12 7.44 143.07 140.97 -208.04 4.52 2.16 11.62zm662.48 73.81l-211.48 0.61c-8.98,6.49 -10.36,12.63 -7.78,21.99l155.52 144.81 8.12 -7.42 -150.97 -144.59 208.75 -3.77 -2.16 -11.63zm-119.64 227.41l-153.8 -152.98c-10.93,-1.73 -16.26,1.63 -21.05,10.06l3.79 215.74 11 0.52 -0.73 -212.4 154.12 148.8 6.67 -9.74zm44.8 -468.73l-145.05 145.89c-1.75,10.96 1.61,16.29 10.06,21.06l207.83 -4.53 0.49 -10.98 -204.45 1.48 140.87 -146.24 -9.75 -6.68zm-463.46 -53.71l148.57 146.07c10.95,1.73 16.27,-1.63 21.03,-10.06l-5.15 -206.59 -10.37 1.84 1.48 200.88 -146.23 -140.87 -9.33 8.73zm244.74 -69.99l-0.17 207.66c6.51,8.96 12.65,10.36 21.98,7.75l144.29 -151.81 -8.17 -6.21 -143.3 145.36 -3.77 -203 -10.86 0.25zm-299.11 536.13l149.39 -150.21c1.73,-10.96 -1.62,-16.29 -10.07,-21.06l-207.84 4.52 -0.49 10.99 204.46 -1.47 -145.2 150.55 9.75 6.68zm222.38 127.54l0.84 -215.82c-6.51,-8.96 -12.66,-10.36 -22,-7.76l-147.69 154.07 7.43 8.14 147.46 -149.54 2.34 213.07 11.62 -2.16z"/>
    <g>
     <path class="fil0" d="M4449.51 1383.52l0 -313.36 0 313.36zm87.42 -318.35l0 318.35 0 -318.35zm-45.01 -70.16c27.34,0 49.53,22.18 49.53,49.55 0,7.35 -1.65,14.34 -4.52,20.61 -7.81,17.08 -25.01,28.92 -45.01,28.92 -17.99,0 -33.75,-9.58 -42.41,-23.93 -4.53,-7.46 -7.12,-16.26 -7.12,-25.6 0,-27.37 22.17,-49.55 49.53,-49.55z"/>
    </g>
    <path class="fil1" d="M4431.14 1383.52l0 -308.82c-1.9,-3.81 -3.44,-7.81 -4.6,-11.94 -1.63,-5.93 -2.52,-12.05 -2.52,-18.2 0,-18.71 7.6,-35.67 19.88,-47.97 12.28,-12.34 29.27,-19.96 48.03,-19.96 18.74,0 35.72,7.62 48,19.9 12.28,12.36 19.88,29.33 19.88,48.03 0,4.9 -0.55,9.73 -1.57,14.41 -0.72,3.28 -1.71,6.55 -2.94,9.73l0 314.82 -36.75 0 0 -276.51c-8.18,3.52 -17.19,5.46 -26.62,5.46 -8.41,0 -16.53,-1.58 -24.04,-4.46l0 275.51 -36.75 0zm82.84 -361.04c-5.67,-5.6 -13.46,-9.1 -22.05,-9.1 -8.61,0 -16.41,3.5 -22.04,9.13 -5.65,5.61 -9.13,13.42 -9.13,22.05 0,3.05 0.39,5.9 1.09,8.44 0.77,2.78 1.9,5.37 3.31,7.7 2.84,4.58 6.77,8.4 11.42,11.02 4.42,2.57 9.66,4 15.35,4 6.22,0 11.99,-1.8 16.79,-4.88 5.03,-3.23 9.08,-7.85 11.55,-13.28 0.87,-1.89 1.58,-4.03 2.09,-6.34 0.46,-2.09 0.71,-4.33 0.71,-6.66 0,-8.63 -3.48,-16.44 -9.09,-22.08z"/>
   </g>
   <path class="fil1" d="M598.04 3111.79c0,7.08 1.79,14.69 5.34,22.74 3.54,8.05 8.53,14.34 14.98,18.85 -4.51,-5.16 -7.26,-10.8 -8.21,-16.93 -0.97,-6.12 -1.46,-11.12 -1.46,-15l0 -25.14c0,-26.45 7.73,-46.77 23.22,-60.95 15.47,-14.19 41.28,-21.28 77.39,-21.28 34.82,0 62.41,8.06 82.72,24.18 20.29,16.13 30.46,37.41 30.46,63.85l0 38.69c0,25.8 -10.32,46.77 -30.95,62.9 -20.64,16.11 -48.38,24.18 -83.2,24.18l-81.26 0c-38.7,0 -69.82,-8.88 -93.36,-26.6 -23.53,-17.74 -35.31,-42.74 -35.31,-74.97l0 -280.55c0,-32.27 11.94,-57.24 35.81,-74.98 23.86,-17.74 55.12,-26.62 93.83,-26.62l80.29 0c34.82,0 62.56,8.08 83.2,24.21 20.63,16.11 30.95,37.07 30.95,62.86l0 38.7c0,26.45 -10.17,47.73 -30.46,63.85 -20.31,16.12 -47.9,24.2 -82.72,24.2 -36.11,0 -61.92,-7.11 -77.39,-21.28 -15.49,-14.21 -23.22,-34.52 -23.22,-60.96l0 -25.15c0,-3.22 0.64,-8.22 1.92,-15 1.3,-6.77 4.21,-12.73 8.72,-17.89 -6.45,4.51 -11.61,10.8 -15.47,18.85 -3.88,8.07 -5.82,15.65 -5.82,22.75l0 252.49zm128.68 0.97c0,-9.03 -1.14,-16.78 -3.4,-23.22 -2.25,-6.45 -5.97,-9.67 -11.13,-9.67 -5.16,0 -8.85,3.04 -11.11,9.19 -2.25,6.12 -3.39,14.02 -3.39,23.7l0 15.48c0,8.38 0.96,15.94 2.9,22.73 1.94,6.77 5.8,10.15 11.6,10.15 9.69,0 14.53,-10.95 14.53,-32.88l0 -15.48zm0 -268.94c0,-21.93 -4.84,-32.9 -14.53,-32.9 -5.8,0 -9.66,3.4 -11.6,10.17 -1.94,6.76 -2.9,14.35 -2.9,22.73l0 15.48c0,9.67 1.14,17.57 3.39,23.7 2.26,6.13 5.95,9.19 11.11,9.19 5.16,0 8.88,-3.23 11.13,-9.68 2.26,-6.45 3.4,-14.18 3.4,-23.21l0 -15.48zm574.74 282.49c0,16.1 -4.18,30.78 -12.59,44 -8.37,13.23 -19.34,24.35 -32.87,33.39 -13.56,9.02 -29.35,16.11 -47.4,21.27 -18.07,5.16 -36.78,7.42 -56.12,6.77 -20.64,-0.64 -40.8,-3.05 -60.47,-7.25 -19.66,-4.2 -35.3,-12.74 -46.91,-25.64 -6.45,9.03 -15.16,16.77 -26.12,23.22 -10.96,6.46 -28.06,9.67 -51.27,9.67 -30.96,0 -55.62,-9.34 -74,-28.04 -18.39,-18.71 -27.58,-44.51 -27.58,-77.39l0 -100.63c0,-32.23 11.29,-57.88 33.85,-76.91 22.57,-19.02 53.53,-28.53 92.88,-28.53l12.58 0 0 -77.39c0,-18.06 4.02,-33.69 12.08,-46.92 8.06,-13.23 18.87,-24.19 32.42,-32.9 13.54,-8.7 29.19,-15.3 46.91,-19.81 17.74,-4.53 36.28,-6.78 55.63,-6.78 19.34,0 38.05,2.25 56.12,6.78 18.05,4.51 33.84,11.11 47.4,19.81 13.53,8.71 24.5,19.85 32.87,33.38 8.41,13.54 12.59,29.02 12.59,46.44l0 77.39 12.57 0c39.34,0 70.45,9.51 93.35,28.53 22.91,19.03 34.36,44.68 34.36,76.91l0 100.63c0,32.88 -9.37,58.84 -28.07,77.87 -18.69,19.02 -49.98,28.53 -93.82,28.53l-15.49 0 0 -70.62 15.49 0c7.09,0 12.56,-3.71 16.43,-11.12 3.87,-7.42 5.8,-17.26 5.8,-29.52l0 -88.99c0,-12.9 -1.93,-23.06 -5.8,-30.48 -3.87,-7.41 -11.28,-11.11 -22.25,-11.11l-12.57 0 0 135.44zm-101.57 -135.44l-94.82 0 0 120.92c0,33.53 15.8,50.3 47.41,50.3 16.1,0 28.06,-4.52 35.8,-13.55 7.73,-9.03 11.61,-20.95 11.61,-35.78l0 -121.89zm0 -70.63l0 -70.62c0,-15.48 -4.21,-26.44 -12.58,-32.89 -8.4,-6.44 -20,-9.67 -34.83,-9.67 -12.9,0 -24.02,3.07 -33.37,9.19 -9.36,6.12 -14.04,17.25 -14.04,33.37l0 70.62 94.82 0zm-214.77 239.91c8.38,0 13.86,-3.7 16.44,-11.12 2.58,-7.42 3.88,-18.54 3.88,-33.38l0 -124.78 -13.55 0c-10.97,0 -18.06,4.67 -21.28,14.02 -3.23,9.35 -4.84,18.54 -4.84,27.57l0 88.99c0,10.99 1.13,20.16 3.39,27.58 2.25,7.42 7.57,11.12 15.96,11.12zm640.36 71.59c-31.61,-2.58 -55.93,-8.22 -73.03,-16.92 -17.09,-8.71 -29.5,-18.56 -37.24,-29.52 -7.75,-10.95 -12.26,-21.92 -13.54,-32.88 -1.3,-10.97 -1.94,-19.34 -1.94,-25.15l0 -277.65c0,-32.24 12.08,-57.88 36.28,-76.89 24.18,-19.04 57.56,-28.57 100.12,-28.57l102.55 0c16.13,0 31.92,2.6 47.39,7.75 15.49,5.16 29.03,12.26 40.64,21.29 11.6,9.03 20.95,20 28.06,32.89 7.09,12.9 10.63,27.41 10.63,43.53l0 277.65c0,16.13 -3.06,30.63 -9.18,43.53 -6.14,12.9 -14.69,24.01 -25.65,33.38 -10.96,9.34 -23.69,16.43 -38.21,21.28 -14.51,4.83 -29.82,7.25 -45.96,7.25 -34.81,0 -63.52,-9.51 -86.06,-28.53 -22.6,-19.03 -33.9,-44.67 -33.9,-76.91l0 -147.06c0,-16.11 1.62,-30.61 4.85,-43.51 3.24,-12.9 8.71,-24.03 16.45,-33.4 7.73,-9.34 18.23,-16.43 31.43,-21.27 13.23,-4.84 29.84,-7.26 49.84,-7.26 4.49,0 10.31,0.97 17.39,2.9 7.12,1.94 13.56,5.15 19.35,9.68l0 -32.89c0,-12.89 -4.02,-22.74 -12.08,-29.51 -8.06,-6.76 -18.54,-10.48 -31.44,-11.11l-77.39 0c-16.12,-0.66 -27.73,3.05 -34.83,11.11 -7.09,8.07 -10.64,18.55 -10.64,31.44l0 265.06c0,9.68 0.97,18.72 2.9,27.09 1.93,8.4 9.68,12.91 23.21,13.55l0 69.65zm99.65 -110.29c0,27.74 7.1,41.61 21.27,41.61 12.91,0 19.35,-13.87 19.35,-41.61l0 -134.46c0,-12.9 -1.6,-23.05 -4.82,-30.48 -3.23,-7.4 -8.06,-11.12 -14.53,-11.12 -7.08,0 -12.41,3.72 -15.94,11.12 -3.56,7.43 -5.33,17.58 -5.33,30.48l0 134.46zm583.45 -219.6c0,15.5 -3.22,29.03 -9.68,40.64 -6.45,11.6 -19.35,21.29 -38.7,29.02 14.2,5.81 25.81,15.32 34.83,28.54 9.03,13.22 13.55,26.92 13.55,41.12l0 51.27c0,16.12 -3.7,30.47 -11.13,43.06 -7.41,12.55 -17.25,23.37 -29.5,32.39 -12.26,9.04 -26.28,15.96 -42.09,20.81 -15.79,4.83 -32.08,7.25 -48.84,7.25l-132.53 0c-5.17,0 -9.85,1.44 -14.04,4.36 -4.18,2.9 -6.6,10.16 -7.25,21.76 0,11.61 2.58,18.86 7.74,21.75 5.15,2.93 9.67,4.38 13.55,4.38l258.28 0 0 69.64 -258.28 0c-34.84,0 -63.69,-7.91 -86.59,-23.7 -22.9,-15.81 -34.34,-40.15 -34.34,-73.05 0,-32.23 11.44,-55.3 34.34,-69.16 22.9,-13.86 51.75,-20.8 86.59,-20.8l132.53 0c7.72,0 14.99,-4.19 21.76,-12.57 6.77,-8.4 10.16,-19.02 10.16,-31.92l0 -39.67c0,-12.89 -2.11,-22.89 -6.29,-30 -4.19,-7.09 -14.03,-10.62 -29.5,-10.62l0 -70.62c13.54,0 22.9,-3.56 28.05,-10.65 5.14,-7.1 7.74,-17.09 7.74,-29.98l0 -38.71c0,-12.89 -3.39,-23.05 -10.16,-30.48 -6.77,-7.4 -14.7,-11.1 -23.7,-11.1l-119.01 0c-7.06,0 -14,3.38 -20.78,10.14 -6.77,6.77 -10.79,15.65 -12.09,26.61l0 29.01c5.16,-3.21 10.97,-5.48 17.41,-6.76 6.45,-1.3 11.93,-1.94 16.45,-1.94 34.83,0 61.43,9.51 79.8,28.52 18.38,19.05 27.58,44.36 27.58,75.96l0 41.59c0,32.25 -11.45,57.88 -34.34,76.92 -22.9,19.03 -51.77,28.53 -86.58,28.53 -34.83,0 -63.53,-9.5 -86.11,-28.53 -22.57,-19.04 -33.85,-44.67 -33.85,-76.92l0 -168.32c0,-16.12 3.71,-30.63 11.12,-43.53 7.42,-12.89 17.26,-23.86 29.5,-32.89 12.26,-9.03 26.28,-16.13 42.09,-21.29 15.8,-5.15 32.41,-7.75 49.8,-7.75l120.95 0c16.76,0 33.05,2.6 48.84,7.75 15.81,5.16 29.83,12.26 42.09,21.29 12.25,9.03 22.09,20 29.5,32.89 7.43,12.9 11.13,27.41 11.13,43.53l0 52.23zm-243.78 81.28c0,-12.92 -1.78,-23.06 -5.32,-30.48 -3.55,-7.42 -8.87,-11.13 -15.96,-11.13 -7.1,0 -12.27,4.35 -15.49,13.05 -3.22,8.72 -4.83,18.24 -4.83,28.56l0 29.99c0,12.89 1.61,22.89 4.83,29.98 3.22,7.09 8.39,10.64 15.49,10.64 7.09,0 12.41,-3.55 15.96,-10.64 3.54,-7.09 5.32,-17.09 5.32,-29.98l0 -29.99zm608.6 128.66c0,7.08 1.77,14.69 5.32,22.74 3.54,8.05 8.54,14.34 14.99,18.85 -4.52,-5.16 -7.26,-10.8 -8.22,-16.93 -0.96,-6.12 -1.45,-11.12 -1.45,-15l0 -25.14c0,-26.45 7.73,-46.77 23.21,-60.95 15.48,-14.19 41.28,-21.28 77.4,-21.28 34.82,0 62.4,8.06 82.72,24.18 20.31,16.13 30.45,37.41 30.45,63.85l0 38.69c0,25.8 -10.31,46.77 -30.94,62.9 -20.64,16.11 -48.37,24.18 -83.21,24.18l-81.26 0c-38.7,0 -69.81,-8.88 -93.34,-26.6 -23.54,-17.74 -35.32,-42.74 -35.32,-74.97l0 -280.55c0,-32.27 11.94,-57.24 35.8,-74.98 23.86,-17.74 55.14,-26.62 93.83,-26.62l80.29 0c34.84,0 62.57,8.08 83.21,24.21 20.63,16.11 30.94,37.07 30.94,62.86l0 38.7c0,26.45 -10.14,47.73 -30.45,63.85 -20.32,16.12 -47.9,24.2 -82.72,24.2 -36.12,0 -61.92,-7.11 -77.4,-21.28 -15.48,-14.21 -23.21,-34.52 -23.21,-60.96l0 -25.15c0,-3.22 0.64,-8.22 1.93,-15 1.29,-6.77 4.21,-12.73 8.71,-17.89 -6.45,4.51 -11.61,10.8 -15.47,18.85 -3.87,8.07 -5.81,15.65 -5.81,22.75l0 252.49zm128.66 0.97c0,-9.03 -1.13,-16.78 -3.39,-23.22 -2.26,-6.45 -5.96,-9.67 -11.12,-9.67 -5.16,0 -8.86,3.04 -11.13,9.19 -2.25,6.12 -3.37,14.02 -3.37,23.7l0 15.48c0,8.38 0.95,15.94 2.88,22.73 1.94,6.77 5.81,10.15 11.62,10.15 9.68,0 14.51,-10.95 14.51,-32.88l0 -15.48zm0 -268.94c0,-21.93 -4.83,-32.9 -14.51,-32.9 -5.81,0 -9.68,3.4 -11.62,10.17 -1.93,6.76 -2.88,14.35 -2.88,22.73l0 15.48c0,9.67 1.12,17.57 3.37,23.7 2.27,6.13 5.97,9.19 11.13,9.19 5.16,0 8.86,-3.23 11.12,-9.68 2.26,-6.45 3.39,-14.18 3.39,-23.21l0 -15.48zm617.32 510.78c12.88,-0.64 22.41,-2.58 28.52,-5.8 6.14,-3.22 9.21,-6.79 9.21,-10.65l0 -30.95c0,-5.16 -5,-9.2 -14.99,-12.09 -10.01,-2.9 -23.4,-4.36 -40.15,-4.36 -16.13,0 -29.18,1.46 -39.18,4.36 -10,2.89 -15,6.93 -15,12.09l0 30.95c0,4.53 3.39,8.39 10.16,11.61 6.78,3.23 15.95,4.84 27.57,4.84l0 58.04c-35.48,0 -64.82,-5.31 -88.04,-15.96 -23.21,-10.64 -34.83,-23.37 -34.83,-38.21l0 -69.65c0,-8.39 3.56,-15.79 10.65,-22.26 7.09,-6.45 16.92,-12.1 29.5,-16.91 12.58,-4.84 27.41,-8.55 44.51,-11.15 17.09,-2.57 35.3,-3.85 54.66,-3.85 19.99,0 38.53,1.28 55.62,3.85 17.1,2.6 31.92,6.31 44.49,11.15 12.59,4.81 22.41,10.46 29.52,16.91 7.1,6.47 10.63,13.87 10.63,22.26l0 69.65c0,14.19 -11.6,26.76 -34.82,37.73 -23.21,10.97 -52.57,16.44 -88.03,16.44l0 -58.04zm-300.87 0c12.9,-0.64 22.41,-2.58 28.54,-5.8 6.13,-3.22 9.19,-6.79 9.19,-10.65l0 -30.95c0,-5.16 -5,-9.2 -15,-12.09 -9.99,-2.9 -23.06,-4.36 -39.17,-4.36 -16.77,0 -30.17,1.46 -40.16,4.36 -9.98,2.89 -14.99,6.93 -14.99,12.09l0 30.95c0,4.53 3.38,8.39 10.16,11.61 6.77,3.23 15.97,4.84 27.57,4.84l0 58.04c-36.11,0 -65.45,-5.31 -88.03,-15.96 -22.58,-10.64 -33.86,-23.37 -33.86,-38.21l0 -69.65c0,-16.76 13.05,-30 39.19,-39.65 26.12,-9.69 59.48,-14.52 100.12,-14.52 19.36,0 37.57,1.28 54.66,3.85 17.09,2.6 31.92,6.31 44.5,11.15 12.56,4.81 22.58,10.46 29.98,16.91 7.43,6.47 11.14,13.87 11.14,22.26l0 69.65c0,7.09 -3.24,13.87 -9.68,20.31 -6.44,6.45 -15.15,12.27 -26.12,17.42 -10.95,5.16 -24.02,9.2 -39.18,12.1 -15.16,2.88 -31.44,4.34 -48.86,4.34l0 -58.04zm280.54 -614.3c45.8,0 82.24,9.68 109.33,29.04 27.08,19.34 40.61,44.81 40.61,76.42l0 281.51c0,15.48 -3.69,29.82 -11.11,43.04 -7.4,13.23 -17.25,24.35 -29.5,33.39 -12.26,9.02 -26.28,16.11 -42.09,21.27 -15.8,5.16 -32.39,7.74 -49.82,7.74 -16.76,0 -33.04,-2.58 -48.86,-7.74 -15.79,-5.16 -29.81,-12.42 -42.07,-21.76 -12.26,-9.36 -22.09,-20.81 -29.51,-34.35 -7.42,-13.54 -11.12,-28.69 -11.12,-45.47l0 -270.87c0,-12.89 -3.24,-23.05 -9.68,-30.46 -6.45,-7.43 -13.86,-11.14 -22.25,-11.14 -7.73,0 -14.82,3.4 -21.28,10.17 -6.45,6.76 -10.31,16.26 -11.6,28.53l0 378.26 -99.66 0 0 -378.26c-1.29,-12.27 -5.32,-21.77 -12.09,-28.53 -6.77,-6.77 -13.7,-10.17 -20.8,-10.17 -8.37,0 -15.97,3.71 -22.73,11.14 -6.77,7.41 -10.16,17.57 -10.16,30.46l0 268.93c0,27.74 14.2,41.61 42.58,41.61l0 69.65c-47.73,0 -83.2,-9.51 -106.42,-28.53 -23.21,-19.03 -34.83,-44.67 -34.83,-76.91l0 -281.51c0,-16.13 3.71,-30.64 11.13,-43.54 7.41,-12.91 17.25,-23.86 29.5,-32.88 12.26,-9.04 26.28,-16.15 42.07,-21.3 15.82,-5.16 32.1,-7.74 48.86,-7.74 14.85,0 29.83,2.27 45,6.78 15.15,4.51 27.25,12.25 36.28,23.21 9.66,-10.96 22.55,-18.7 38.69,-23.21 16.13,-4.51 31.28,-6.78 45.46,-6.78 16.14,0 32.25,2.58 48.37,7.74 16.12,5.15 30.47,12.26 43.05,21.3 12.58,9.02 22.58,20.14 29.98,33.36 7.43,13.24 10.82,27.57 10.16,43.06l0 270.86c0,12.9 2.26,23.86 6.78,32.89 4.51,9.03 12.9,13.55 25.15,13.55 10.96,0 19.19,-4.36 24.68,-13.06 5.47,-8.71 8.21,-19.51 8.21,-32.41l0 -265.07c0,-12.89 -4.83,-23.05 -14.5,-30.46 -9.68,-7.43 -21.6,-11.14 -35.81,-11.14l0 -70.62zm371.6 616.24c12.89,-0.65 22.25,-2.42 28.06,-5.32 5.81,-2.9 8.71,-6.29 8.71,-10.16l0 -32.89c0,-5.17 -5.01,-9.03 -15.01,-11.62 -9.99,-2.58 -23.05,-3.88 -39.17,-3.88 -15.49,0 -28.21,1.3 -38.22,3.88 -10,2.59 -15,6.45 -15,11.62l0 32.89c0,4.52 3.4,8.22 10.17,11.12 6.78,2.91 15.64,4.36 26.59,4.36l0 57.06c-35.45,0 -64.67,-5.15 -87.54,-15.46 -22.89,-10.33 -34.35,-22.89 -34.35,-37.73l0 -69.66c0,-16.75 13.24,-29.83 39.67,-39.17 26.44,-9.36 59.33,-14.03 98.68,-14.03 19.99,0 38.38,1.29 55.13,3.87 16.77,2.57 31.45,6.13 44.02,10.63 12.58,4.52 22.42,10.01 29.49,16.45 7.11,6.46 10.66,13.88 10.66,22.25l0 69.66c0,14.18 -11.61,26.6 -34.82,37.24 -23.22,10.65 -52.25,15.95 -87.07,15.95l0 -57.06zm-2.91 -192.52c12.9,-1.29 21.61,-6.12 26.14,-14.51 4.51,-8.38 6.76,-17.74 6.76,-28.06l0 -268.93c0,-12.89 -4.19,-23.05 -12.58,-30.46 -8.39,-7.43 -19.99,-11.14 -34.82,-11.14 -13.55,0 -24.68,3.71 -33.38,11.14 -8.7,7.41 -13.06,17.57 -13.06,30.46l0 268.93c0,9.68 3.23,19.03 9.67,28.06 6.46,9.03 15.16,13.55 26.11,13.55l0 69.65c-19.33,0 -37.22,-2.9 -53.68,-8.7 -16.44,-5.82 -30.63,-13.54 -42.56,-23.22 -11.94,-9.68 -21.46,-20.81 -28.54,-33.38 -7.1,-12.57 -10.65,-25.96 -10.65,-40.14l0 -281.51c0,-16.13 3.89,-30.64 11.62,-43.54 7.74,-12.91 18.05,-23.86 30.97,-32.88 12.88,-9.04 28.2,-16.15 45.93,-21.3 17.74,-5.16 36.92,-7.74 57.57,-7.74 20.64,0 39.82,2.58 57.55,7.74 17.74,5.15 33.23,12.26 46.44,21.3 13.23,9.02 23.54,20.14 30.97,33.36 7.41,13.24 11.11,27.57 11.11,43.06l0 281.51c0,13.53 -3.22,26.6 -9.67,39.17 -6.44,12.58 -15.48,23.7 -27.09,33.38 -11.61,9.68 -25.47,17.57 -41.6,23.7 -16.12,6.14 -33.84,9.19 -53.21,9.19l0 -68.69zm247.76 -558.17l0 40.63c0,15.47 -3.52,29.17 -10.63,41.1 -7.1,11.93 -16.61,21.93 -28.54,29.97 -11.94,8.08 -25.64,14.05 -41.12,17.92 -15.47,3.87 -31.92,5.8 -49.35,5.8 -16.74,0 -32.88,-1.93 -48.35,-5.8 -15.48,-3.87 -29.19,-9.84 -41.11,-17.92 -11.94,-8.04 -21.44,-18.04 -28.55,-29.97 -7.1,-11.93 -10.64,-25.96 -10.64,-42.08l0 -39.65 98.67 0 0 33.85c0,12.9 3.07,22.08 9.2,27.56 6.12,5.5 13.06,8.23 20.78,8.23 8.42,0 15.49,-2.57 21.3,-7.75 5.8,-5.15 8.71,-14.18 8.71,-27.08l0 -34.81 99.63 0z"/>
   <path class="fil1" d="M4381.23 3166.94c13.18,-1.31 22.09,-6.26 26.71,-14.82 4.62,-8.59 6.91,-18.16 6.91,-28.71l0 -275.07c0,-13.19 -4.28,-23.58 -12.85,-31.16 -8.58,-7.6 -20.45,-11.39 -35.63,-11.39 -13.85,0 -25.23,3.79 -34.13,11.39 -8.91,7.58 -13.36,17.97 -13.36,31.16l0 275.07c0,9.89 3.31,19.46 9.89,28.71 6.6,9.22 15.52,13.84 26.72,13.84l0 71.24c-19.8,0 -38.09,-2.96 -54.91,-8.89 -16.82,-5.95 -31.34,-13.86 -43.53,-23.76 -12.22,-9.89 -21.94,-21.28 -29.19,-34.13 -7.27,-12.86 -10.89,-26.56 -10.89,-41.07l0 -287.92c0,-16.51 3.95,-31.34 11.88,-44.54 7.9,-13.2 18.45,-24.4 31.66,-33.63 13.18,-9.25 28.86,-16.51 46.99,-21.78 18.15,-5.29 37.77,-7.92 58.87,-7.92 21.11,0 40.75,2.63 58.87,7.92 18.14,5.27 33.99,12.53 47.51,21.78 13.51,9.23 24.07,20.6 31.66,34.12 7.58,13.55 11.37,28.21 11.37,44.05l0 287.92c0,13.85 -3.3,27.21 -9.88,40.08 -6.61,12.86 -15.84,24.24 -27.71,34.13 -11.88,9.9 -26.05,17.98 -42.55,24.24 -16.51,6.28 -34.63,9.4 -54.41,9.4l0 -70.26zm464.16 103.9c0,32.33 -12.21,58.38 -36.61,78.17 -24.41,19.79 -57.39,29.69 -98.95,29.69 -38.92,0 -71.08,-9.73 -96.47,-29.19 -25.4,-19.46 -38.1,-45.68 -38.1,-78.67l0 -93.99c0,-16.5 3.62,-31.16 10.89,-44.04 7.26,-12.86 16.98,-23.9 29.19,-33.14 12.19,-9.23 26.05,-16.49 41.55,-21.78 15.51,-5.27 31.17,-8.24 47,-8.9l-0.99 0c9.24,-1.31 17.64,-6.42 25.24,-15.34 7.58,-8.9 11.38,-19.61 11.38,-32.16l0 -172.14c0,-13.21 -2.97,-23.6 -8.92,-31.18 -5.93,-7.59 -12.85,-11.39 -20.77,-11.39 -7.26,0 -13.69,3.8 -19.3,11.39 -5.59,7.58 -8.41,17.97 -8.41,31.18l0 76.18 -101.9 0 0 -83.12c0,-16.49 3.61,-31.33 10.88,-44.54 7.25,-13.18 16.81,-24.4 28.7,-33.64 11.86,-9.22 25.55,-16.49 41.05,-21.76 15.5,-5.28 31.83,-7.92 48.98,-7.92 17.13,0 33.65,2.64 49.49,7.92 15.81,5.27 29.67,12.54 41.53,21.76 11.89,9.24 21.45,20.63 28.72,34.15 7.23,13.52 10.86,28.19 10.86,44.03l0 185.04c0,11.86 -3.28,23.58 -9.88,35.12 -6.61,11.54 -18.47,22.58 -35.63,33.14 11.22,6.59 20.29,14.19 27.23,22.75 6.92,8.59 12.02,16.49 15.33,23.76 3.3,6.59 5.44,12.69 6.42,18.3 0.99,5.6 1.49,11.06 1.49,16.33l0 93.99zm-101.91 -15.81c-9.9,5.93 -22.1,8.88 -36.63,8.88 -11.85,0 -21.75,-2.63 -29.68,-7.91l0 8.9c0,13.2 2.98,23.44 8.92,30.68 5.93,7.26 13.85,10.89 23.74,10.89 22.42,0 33.65,-13.85 33.65,-41.57l0 -9.87zm-32.65 -61.36c6.59,0 12.69,-1.98 18.29,-5.94 5.61,-3.96 8.42,-10.55 8.42,-19.77 0,-7.28 -2.31,-13.38 -6.94,-18.32 -4.61,-4.95 -11.54,-7.42 -20.77,-7.42 -16.49,0 -25.06,8.25 -25.72,24.72 0,11.22 2.8,18.49 8.4,21.77 5.61,3.3 11.7,4.96 18.32,4.96zm295.79 -80.14c0,7.24 1.82,15.01 5.44,23.25 3.63,8.24 8.75,14.67 15.34,19.28 -4.61,-5.27 -7.42,-11.04 -8.41,-17.31 -0.98,-6.26 -1.49,-11.37 -1.49,-15.34l0 -25.71c0,-27.07 7.93,-47.83 23.76,-62.35 15.83,-14.52 42.22,-21.77 79.15,-21.77 35.62,0 63.82,8.25 84.61,24.74 20.77,16.5 31.17,38.27 31.17,65.31l0 39.57c0,26.4 -10.56,47.83 -31.67,64.33 -21.11,16.49 -49.47,24.73 -85.09,24.73l-83.13 0c-39.56,0 -71.4,-9.07 -95.48,-27.21 -24.07,-18.14 -36.11,-43.71 -36.11,-76.68l0 -286.94c0,-33.01 12.2,-58.55 36.6,-76.7 24.42,-18.14 56.41,-27.22 95.98,-27.22l82.14 0c35.62,0 63.98,8.26 85.09,24.76 21.11,16.48 31.67,37.92 31.67,64.3l0 39.58c0,27.05 -10.4,48.82 -31.17,65.31 -20.79,16.48 -48.99,24.75 -84.61,24.75 -36.93,0 -63.32,-7.28 -79.15,-21.77 -15.83,-14.53 -23.76,-35.31 -23.76,-62.35l0 -25.73c0,-3.29 0.67,-8.4 1.98,-15.33 1.33,-6.93 4.31,-13.03 8.91,-18.31 -6.59,4.62 -11.88,11.05 -15.84,19.29 -3.95,8.25 -5.93,16.01 -5.93,23.26l0 258.26zm131.6 0.99c0,-9.24 -1.16,-17.16 -3.47,-23.76 -2.31,-6.59 -6.1,-9.89 -11.37,-9.89 -5.28,0 -9.07,3.12 -11.37,9.4 -2.32,6.26 -3.47,14.35 -3.47,24.25l0 15.83c0,8.57 0.98,16.31 2.97,23.25 1.97,6.92 5.94,10.38 11.87,10.38 9.9,0 14.84,-11.2 14.84,-33.63l0 -15.83zm0 -275.08c0,-22.43 -4.94,-33.65 -14.84,-33.65 -5.93,0 -9.9,3.48 -11.87,10.4 -1.99,6.92 -2.97,14.68 -2.97,23.25l0 15.83c0,9.9 1.15,17.97 3.47,24.25 2.3,6.27 6.09,9.39 11.37,9.39 5.27,0 9.06,-3.29 11.37,-9.9 2.31,-6.59 3.47,-14.5 3.47,-23.74l0 -15.83zm479.02 513.53l-157.31 0c-23.76,0 -45.54,-2.97 -65.32,-8.9 -19.8,-5.93 -37.1,-15.34 -51.94,-28.18 -14.85,-12.89 -26.38,-28.9 -34.63,-48 -8.26,-19.14 -12.37,-42.23 -12.37,-69.27l0 -355.22c0,-16.5 4.44,-31.33 13.36,-44.53 8.9,-13.19 20.61,-24.41 35.12,-33.65 14.51,-9.23 31.01,-16.5 49.47,-21.76 18.47,-5.29 37.61,-7.92 57.4,-7.92l0 71.24c-13.19,0 -25.57,3.8 -37.11,11.39 -11.56,7.58 -17.31,17.97 -17.31,31.18l0 344.32c0,29.69 5.75,51.95 17.31,66.8 11.54,14.83 26.88,22.24 46.02,22.24l157.31 0 0 70.26zm170.14 -224.6c0,16.48 -4.12,31.49 -12.37,45.01 -8.23,13.53 -19.47,24.91 -33.63,34.15 -14.19,9.22 -30.52,16.49 -48.98,21.76 -18.48,5.28 -37.94,7.91 -58.4,7.91 -20.43,0 -39.9,-2.63 -58.36,-7.91 -18.48,-5.27 -34.66,-12.71 -48.49,-22.26 -13.85,-9.56 -24.9,-20.95 -33.15,-34.14 -8.24,-13.19 -12.37,-28.04 -12.37,-44.52l0 -67.29 116.77 0 0 61.34c0,12.53 3.3,22.6 9.9,30.19 6.58,7.58 15.15,11.37 25.7,11.37 10.56,0 19.31,-3.79 26.23,-11.37 6.93,-7.59 10.4,-17.66 10.4,-30.19l0 -60.35c0,-12.52 -3.63,-22.76 -10.9,-30.68 -7.25,-7.91 -16.82,-12.54 -28.68,-13.85 -20.46,0 -39.77,-2.64 -57.89,-7.91 -18.14,-5.28 -33.97,-12.54 -47.49,-21.77 -13.52,-9.23 -24.25,-20.61 -32.16,-34.14 -7.92,-13.51 -11.88,-28.19 -11.88,-44.02l0 -71.25c0,-16.49 4.13,-31.34 12.37,-44.51 8.25,-13.21 19.3,-24.59 33.15,-34.16 13.83,-9.56 30.01,-16.98 48.49,-22.27 18.46,-5.27 37.93,-7.9 58.36,-7.9 20.46,0 39.92,2.63 58.4,7.9 18.46,5.29 34.79,12.71 48.98,22.27 14.16,9.57 25.4,21.11 33.63,34.64 8.25,13.51 12.37,28.2 12.37,44.03l0 67.28 -116.75 0 0 -60.36c0,-13.19 -3.47,-23.74 -10.4,-31.66 -6.92,-7.92 -15.67,-11.87 -26.23,-11.87 -10.55,0 -19.12,3.95 -25.7,11.87 -6.6,7.92 -9.9,18.47 -9.9,31.66l0 57.4c0,13.19 3.11,23.57 9.4,31.16 6.27,7.58 15,12.04 26.2,13.37 20.46,0 39.92,2.62 58.4,7.91 18.46,5.27 34.79,12.7 48.98,22.26 14.16,9.56 25.4,20.94 33.63,34.14 8.25,13.19 12.37,28.03 12.37,44.53l0 72.23z"/>
   <path class="fil1" d="M5948.77 3121.45c0,17.79 3.3,29.34 9.9,34.61 6.6,5.28 14.18,7.92 22.76,7.92 8.57,0 16.32,-2.96 23.25,-8.9 6.92,-5.93 10.39,-17.15 10.39,-33.63l0 -272.1c0,-16.51 -3.47,-27.72 -10.39,-33.66 -6.93,-5.92 -14.68,-8.91 -23.25,-8.91 -8.58,0 -16.16,2.8 -22.76,8.42 -6.6,5.6 -9.9,16.98 -9.9,34.15l0 76.18 -101.91 0 0 -83.12c0,-16.49 3.8,-31.33 11.37,-44.54 7.58,-13.18 17.65,-24.4 30.18,-33.64 12.54,-9.22 26.88,-16.49 43.03,-21.76 16.17,-5.28 32.83,-7.92 49.99,-7.92 17.8,0 34.79,2.64 50.96,7.92 16.15,5.27 30.51,12.54 43.03,21.76 12.54,9.24 22.59,20.63 30.18,34.15 7.59,13.52 11.39,28.19 11.39,44.03l0 284.97c0,15.82 -3.8,30.51 -11.39,44.03 -7.59,13.52 -17.64,24.9 -30.18,34.13 -12.52,9.23 -26.88,16.49 -43.03,21.77 -16.17,5.28 -33.16,7.92 -50.96,7.92 -17.16,0 -33.82,-2.49 -49.99,-7.43 -16.15,-4.93 -30.49,-12.2 -43.03,-21.77 -12.53,-9.55 -22.6,-20.94 -30.18,-34.13 -7.57,-13.19 -11.37,-28.04 -11.37,-44.52l0 -79.17 101.91 0 0 73.24zm451.32 -387.89c23.08,0 41.38,1.98 54.91,5.95 13.53,3.95 25.24,10.88 35.14,20.75 11.21,-11.21 24.56,-18.78 40.06,-22.75 15.51,-3.95 31.84,-5.93 48.98,-5.93 15.18,0 29.85,2.31 44.03,6.95 14.19,4.6 26.88,11.21 38.1,19.76 10.55,-9.24 23.91,-15.98 40.07,-20.27 16.16,-4.29 32.15,-6.44 47.98,-6.44 17.16,0 33.97,2.48 50.47,7.44 16.48,4.95 31,12.03 43.53,21.24 12.55,9.25 22.6,20.47 30.19,33.68 7.58,13.17 11.38,28.02 11.38,44.51l0 289.92c0,16.48 -4.29,31.33 -12.86,44.52 -8.59,13.19 -19.79,24.41 -33.66,33.65 -13.83,9.22 -30,16.33 -48.47,21.26 -18.48,4.94 -37.59,7.43 -57.39,7.43l0 -72.25c14.51,0 26.38,-3.45 35.62,-10.37 9.23,-6.92 13.85,-16.66 13.85,-29.2l0 -278.04c0,-13.19 -3.29,-23.41 -9.91,-30.66 -6.58,-7.27 -14.16,-10.89 -22.75,-10.89 -7.91,0 -15.16,3.29 -21.77,9.89 -6.58,6.61 -10.56,15.83 -11.86,27.72l0 390.83 -102.9 0 0 -389.85c-1.33,-12.54 -5.29,-22.09 -11.89,-28.7 -6.58,-6.6 -13.85,-9.89 -21.76,-9.89 -7.92,0 -15.16,3.29 -21.76,9.89 -6.61,6.61 -10.56,16.16 -11.88,28.7l0 389.85 -102.91 0 0 -380.96c0,-13.18 -3.79,-24.4 -11.38,-33.63 -7.58,-9.25 -18.97,-13.54 -34.14,-12.87l-90.03 0c-7.27,0 -13.85,3.79 -19.79,11.39 -5.94,7.58 -8.92,17.98 -8.92,31.17l0 22.76c6.61,-1.34 12.87,-1.99 18.81,-1.99 35.63,0 64.97,9.89 88.06,29.68 23.1,19.79 34.65,46.18 34.65,79.16l0 151.4c0,33.63 -11.55,60.18 -34.65,79.65 -23.09,19.45 -52.43,29.18 -88.06,29.18 -34.96,0 -63.82,-9.73 -86.58,-29.18 -22.76,-19.47 -34.13,-46.02 -34.13,-79.65l0 -285.96c0,-16.49 3.63,-31.33 10.88,-44.54 7.25,-13.18 16.82,-24.56 28.69,-34.12 11.88,-9.59 25.72,-17 41.56,-22.27 15.84,-5.29 32.34,-7.92 49.48,-7.92l93.01 0zm-83.11 250.34c0,-13.2 -1.5,-23.58 -4.47,-31.17 -2.96,-7.59 -8.08,-11.37 -15.33,-11.37 -6.6,0 -11.38,3.78 -14.35,11.37 -2.96,7.59 -4.46,17.97 -4.46,31.17l0 139.51c0,12.54 1.5,22.6 4.46,30.19 2.97,7.57 7.75,11.37 14.35,11.37 7.25,0 12.37,-3.8 15.33,-11.37 2.97,-7.59 4.47,-17.65 4.47,-30.19l0 -139.51zm623.47 -278.05c0,-13.18 -1.16,-23.41 -3.46,-30.66 -2.31,-7.25 -8.09,-10.89 -17.31,-10.89 -8.58,0 -14.03,3.64 -16.33,10.89 -2.31,7.25 -3.47,17.48 -3.47,30.66l0 13.86 -100.92 0 0 -20.78c0,-32.98 11.22,-59.21 33.64,-78.65 22.43,-19.48 51.45,-29.19 87.08,-29.19 34.95,0 63.98,9.71 87.07,29.19 23.08,19.44 34.63,45.67 34.63,78.65l0 533.33 -100.93 0 0 -526.41zm605.67 422.52c0,16.48 -4.27,31.49 -12.86,45.01 -8.57,13.53 -19.8,24.91 -33.64,34.15 -13.86,9.22 -30.02,16.49 -48.48,21.76 -18.46,5.28 -37.61,7.58 -57.4,6.92 -21.11,-0.65 -41.71,-3.13 -61.83,-7.41 -20.13,-4.29 -36.13,-13.04 -47.99,-26.23 -6.6,9.23 -15.52,17.16 -26.72,23.75 -11.21,6.6 -28.7,9.89 -52.44,9.89 -31.67,0 -56.9,-9.56 -75.69,-28.68 -18.81,-19.14 -28.22,-45.53 -28.22,-79.16l0 -102.91c0,-32.98 11.56,-59.21 34.64,-78.67 23.11,-19.46 54.76,-29.19 95,-29.19l12.86 0 0 -79.15c0,-18.48 4.11,-34.46 12.36,-47.99 8.26,-13.54 19.3,-24.75 33.14,-33.65 13.87,-8.9 29.87,-15.65 48,-20.28 18.14,-4.62 37.11,-6.92 56.89,-6.92 19.79,0 38.94,2.3 57.4,6.92 18.46,4.63 34.62,11.38 48.48,20.28 13.84,8.9 25.07,20.3 33.64,34.14 8.59,13.85 12.86,29.69 12.86,47.5l0 79.15 12.86 0c40.25,0 72.07,9.73 95.48,29.19 23.44,19.46 35.15,45.69 35.15,78.67l0 102.91c0,33.63 -9.58,60.18 -28.72,79.65 -19.11,19.45 -51.11,29.18 -95.97,29.18l-15.82 0 0 -72.23 15.82 0c7.26,0 12.86,-3.8 16.83,-11.37 3.93,-7.59 5.93,-17.65 5.93,-30.19l0 -91.02c0,-13.2 -2,-23.59 -5.93,-31.17 -3.97,-7.59 -11.54,-11.37 -22.77,-11.37l-12.86 0 0 138.52zm-103.91 -138.52l-96.96 0 0 123.68c0,34.3 16.16,51.44 48.49,51.44 16.48,0 28.71,-4.62 36.62,-13.85 7.9,-9.24 11.85,-21.44 11.85,-36.6l0 -124.67zm0 -72.25l0 -72.23c0,-15.83 -4.28,-27.04 -12.84,-33.64 -8.6,-6.58 -20.46,-9.89 -35.63,-9.89 -13.18,0 -24.57,3.14 -34.13,9.4 -9.57,6.26 -14.36,17.64 -14.36,34.13l0 72.23 96.96 0zm-219.64 245.38c8.57,0 14.17,-3.78 16.81,-11.35 2.64,-7.61 3.97,-18.98 3.97,-34.16l0 -127.62 -13.85 0c-11.22,0 -18.47,4.78 -21.77,14.34 -3.32,9.56 -4.96,18.96 -4.96,28.2l0 91.02c0,11.24 1.15,20.61 3.48,28.22 2.3,7.57 7.74,11.35 16.32,11.35zm585.72 -566.93l0 41.54c0,15.83 -3.64,29.84 -10.89,42.05 -7.24,12.2 -16.99,22.43 -29.18,30.65 -12.22,8.27 -26.23,14.37 -42.06,18.33 -15.83,3.95 -32.65,5.93 -50.46,5.93 -17.17,0 -33.65,-1.98 -49.47,-5.93 -15.84,-3.96 -29.85,-10.06 -42.06,-18.33 -12.21,-8.22 -21.93,-18.45 -29.2,-30.65 -7.26,-12.21 -10.87,-26.55 -10.87,-43.04l0 -40.55 100.93 0 0 34.62c0,13.19 3.14,22.58 9.39,28.19 6.26,5.61 13.37,8.41 21.28,8.41 8.57,0 15.82,-2.63 21.77,-7.92 5.93,-5.27 8.9,-14.51 8.9,-27.7l0 -35.6 101.92 0zm412.55 137.51c46.83,0 84.09,9.9 111.81,29.7 27.71,19.79 41.55,45.83 41.55,78.17l0 287.92c0,15.85 -3.78,30.51 -11.37,44.03 -7.59,13.53 -17.65,24.91 -30.18,34.15 -12.54,9.22 -26.89,16.49 -43.04,21.76 -16.15,5.28 -33.17,7.91 -50.96,7.91 -17.15,0 -33.81,-2.63 -49.98,-7.91 -16.15,-5.27 -30.51,-12.71 -43.03,-22.26 -12.53,-9.56 -22.59,-21.28 -30.19,-35.13 -7.59,-13.85 -11.36,-29.35 -11.36,-46.5l0 -277.06c0,-13.19 -3.3,-23.58 -9.9,-31.16 -6.6,-7.6 -14.2,-11.39 -22.75,-11.39 -7.93,0 -15.18,3.48 -21.77,10.4 -6.62,6.92 -10.56,16.65 -11.89,29.18l0 386.89 -101.9 0 0 -386.89c-1.33,-12.53 -5.45,-22.26 -12.39,-29.18 -6.92,-6.92 -14,-10.4 -21.25,-10.4 -8.58,0 -16.33,3.79 -23.26,11.39 -6.93,7.58 -10.4,17.97 -10.4,31.16l0 275.07c0,28.37 14.53,42.55 43.55,42.55l0 71.24c-48.82,0 -85.13,-9.73 -108.85,-29.18 -23.74,-19.47 -35.62,-45.69 -35.62,-78.67l0 -287.92c0,-16.51 3.79,-31.34 11.37,-44.54 7.6,-13.2 17.65,-24.4 30.19,-33.63 12.53,-9.25 26.88,-16.51 43.03,-21.78 16.17,-5.29 32.82,-7.92 49.99,-7.92 15.16,0 30.49,2.31 46,6.94 15.5,4.61 27.88,12.52 37.11,23.73 9.89,-11.21 23.08,-19.12 39.58,-23.73 16.48,-4.63 31.99,-6.94 46.51,-6.94 16.48,0 32.98,2.63 49.47,7.92 16.48,5.27 31.15,12.53 44.02,21.78 12.86,9.23 23.09,20.6 30.66,34.12 7.61,13.55 11.06,28.21 10.4,44.05l0 277.03c0,13.2 2.31,24.41 6.93,33.66 4.62,9.22 13.2,13.84 25.73,13.84 11.21,0 19.62,-4.46 25.23,-13.35 5.61,-8.91 8.4,-19.96 8.4,-33.15l0 -271.12c0,-13.19 -4.95,-23.58 -14.83,-31.16 -9.89,-7.6 -22.1,-11.39 -36.61,-11.39l0 -72.23zm272.21 -137.51l0 41.54c0,15.83 -3.62,29.84 -10.88,42.05 -7.26,12.2 -16.99,22.43 -29.19,30.65 -12.2,8.27 -26.23,14.37 -42.03,18.33 -15.86,3.95 -32.68,5.93 -50.48,5.93 -17.15,0 -33.65,-1.98 -49.47,-5.93 -15.84,-3.96 -29.87,-10.06 -42.06,-18.33 -12.21,-8.22 -21.93,-18.45 -29.19,-30.65 -7.27,-12.21 -10.89,-26.55 -10.89,-43.04l0 -40.55 100.94 0 0 34.62c0,13.19 3.12,22.58 9.39,28.19 6.26,5.61 13.37,8.41 21.28,8.41 8.58,0 15.83,-2.63 21.77,-7.92 5.92,-5.27 8.91,-14.51 8.91,-27.7l0 -35.6 101.9 0z"/>
  </g>
 </g>
</svg>
